<svg version="1.2" xmlns="http://www.w3.org/2000/svg" viewBox="0 0 257 350" width="257" height="350">
	<style>
		.s0 { fill: #4aabb1 } 
		.s1 { fill: #3e8e93 } 
		.s2 { fill: #317276 } 
		.s3 { fill: #3f1833 } 
		.s4 { fill: #5a3950 } 
		.s5 { fill: #f9fafb } 
		.s6 { fill: #f1a20d } 
	</style>
	<g id="&lt;Group&gt;">
		<g id="&lt;Group&gt;">
			<g id="&lt;Group&gt;">
				<path id="&lt;Path&gt;" class="s0" d="m50.35 243.11l28.54-26.4 24.62 3.32-17.18 36.3z"/>
			</g>
			<g id="&lt;Group&gt;">
				<path id="&lt;Path&gt;" class="s1" d="m86.33 256.33l17.18-36.3 6.95 6.97-12.23 30.27z"/>
			</g>
			<g id="&lt;Group&gt;">
				<path id="&lt;Path&gt;" class="s1" d="m87.27 319.92l11.6-8.39-3.19-43.96-10.03-7.44z"/>
			</g>
			<g id="&lt;Group&gt;">
				<path id="&lt;Path&gt;" class="s0" d="m49.47 259.9l-5.87 53.88 43.67 6.14-1.62-59.79z"/>
			</g>
			<g id="&lt;Group&gt;">
				<path id="&lt;Path&gt;" class="s1" d="m103.51 220.03l-24.62-3.32-3.9-10.7 35.64 4.8z"/>
			</g>
			<g id="&lt;Group&gt;">
				<path id="&lt;Path&gt;" class="s2" d="m103.51 220.03l6.95 6.97 13.03-14.46-12.86-1.73z"/>
			</g>
			<g id="&lt;Group&gt;">
				<g id="&lt;Group&gt;">
					<path id="&lt;Path&gt;" class="s3" d="m55.02 254.91c-0.81 6.06-4.23 10.6-7.63 10.14-3.4-0.46-5.5-5.74-4.68-11.8 0.82-6.06 4.24-10.6 7.64-10.14 3.4 0.45 5.49 5.74 4.67 11.8z"/>
				</g>
				<g id="&lt;Group&gt;">
					<path id="&lt;Path&gt;" class="s3" d="m90.44 270.85l-43.05-5.8 2.96-21.94 43.05 5.8z"/>
				</g>
				<g id="&lt;Group&gt;">
					<path id="&lt;Path&gt;" class="s4" d="m98.08 260.71c-0.82 6.06-4.24 10.6-7.64 10.14-3.4-0.46-5.49-5.74-4.67-11.8 0.81-6.06 4.23-10.6 7.63-10.14 3.4 0.46 5.49 5.74 4.68 11.8z"/>
				</g>
			</g>
			<g id="&lt;Group&gt;">
				<path id="&lt;Path&gt;" class="s3" d="m87.27 319.92l8.28 29.36-64.05-10.6 12.1-24.9z"/>
			</g>
			<g id="&lt;Group&gt;">
				<path id="&lt;Path&gt;" class="s4" d="m95.55 349.28l19.33-13.54-16.01-24.21-11.6 8.39"/>
			</g>
		</g>
		<g id="&lt;Group&gt;">
			<path id="&lt;Path&gt;" class="s0" d="m17.84 35.92c-9.55 0-17.32-7.77-17.32-17.32v-10.53h4.9v10.53c0 6.84 5.57 12.41 12.42 12.41 6.85 0 12.42-5.57 12.42-12.41v-10.53h4.9v10.53c0 9.55-7.77 17.32-17.32 17.32z"/>
		</g>
		<g id="&lt;Group&gt;">
			<path id="&lt;Path&gt;" class="s0" d="m256.62 226.71h-4.91v-10.53c0-6.85-5.57-12.42-12.41-12.42-6.85 0-12.42 5.57-12.42 12.42v10.53h-4.9v-10.53c0-9.55 7.77-17.32 17.32-17.32 9.55 0 17.32 7.77 17.32 17.32z"/>
		</g>
		<g id="&lt;Group&gt;">
			<path id="&lt;Path&gt;" class="s3" d="m50.12 124.45c-21.85 0-39.63-17.78-39.63-39.63v-51.36c0-4.06 3.29-7.35 7.35-7.35 4.06 0 7.35 3.29 7.35 7.35v51.36c0 13.74 11.19 24.93 24.93 24.93 4.06 0 7.35 3.29 7.35 7.35 0 4.06-3.29 7.35-7.35 7.35z"/>
		</g>
		<g id="&lt;Group&gt;">
			<path id="&lt;Path&gt;" class="s3" d="m239.3 208.66c-4.06 0-7.35-3.29-7.35-7.35v-51.35c0-13.75-11.19-24.93-24.94-24.93-4.06 0-7.35-3.29-7.35-7.35 0-4.06 3.29-7.35 7.35-7.35 21.86 0 39.64 17.78 39.64 39.63v51.35c0 4.06-3.29 7.35-7.35 7.35z"/>
		</g>
		<g id="&lt;Group&gt;">
			<path id="&lt;Path&gt;" class="s0" d="m182.18 193.91h-107.51c-8.12 0-14.71-6.58-14.71-14.7v-76.45c0-8.12 6.59-14.7 14.71-14.7h107.51c8.12 0 14.7 6.58 14.7 14.7v76.45c0 8.12-6.58 14.7-14.7 14.7z"/>
		</g>
		<g id="&lt;Group&gt;">
			<path id="&lt;Path&gt;" class="s1" d="m74.67 184.11c-2.71 0-4.91-2.19-4.91-4.9v-76.45c0-2.71 2.2-4.9 4.91-4.9h107.51c2.7 0 4.9 2.19 4.9 4.9v76.45c0 2.71-2.2 4.9-4.9 4.9z"/>
		</g>
		<g id="&lt;Group&gt;">
			<path id="&lt;Path&gt;" class="s3" d="m201.82 213.72h-146.8c-2.7 0-4.9-2.19-4.9-4.9v-10c0-2.71 2.2-4.91 4.9-4.91h146.8c2.71 0 4.9 2.2 4.9 4.91v10c0 2.71-2.19 4.9-4.9 4.9z"/>
		</g>
		<g id="&lt;Group&gt;">
			<path id="&lt;Path&gt;" class="s0" d="m178.89 66.09h-100.93v-34.14c0-17.18 13.93-31.11 31.11-31.11h38.71c17.18 0 31.11 13.93 31.11 31.11z"/>
		</g>
		<g id="&lt;Group&gt;">
			<path id="&lt;Path&gt;" class="s1" d="m157.98 80.97h-59.11v-14.88h59.11z"/>
		</g>
		<g id="&lt;Group&gt;">
			<path id="&lt;Path&gt;" class="s5" d="m138.36 76.01h-19.87c-1.9-1.9-2.96-2.97-4.86-4.87v-5.05h29.59v5.05c-1.9 1.9-2.97 2.97-4.86 4.87z"/>
		</g>
		<g id="&lt;Group&gt;">
			<g id="&lt;Group&gt;">
				<path id="&lt;Path&gt;" class="s1" d="m165.57 39.36c0 8.19-6.65 14.83-14.84 14.83-8.19 0-14.84-6.64-14.84-14.83 0-8.2 6.65-14.84 14.84-14.84 8.19 0 14.84 6.64 14.84 14.84z"/>
			</g>
			<g id="&lt;Group&gt;">
				<path id="&lt;Path&gt;" class="s5" d="m161.92 39.36c0 6.18-5.01 11.19-11.19 11.19-6.18 0-11.19-5.01-11.19-11.19 0-6.19 5.01-11.2 11.19-11.2 6.18 0 11.19 5.01 11.19 11.2z"/>
			</g>
			<g id="&lt;Group&gt;">
				<path id="&lt;Path&gt;" class="s3" d="m156.51 39.36c0 3.19-2.59 5.78-5.78 5.78-3.19 0-5.78-2.59-5.78-5.78 0-3.2 2.59-5.78 5.78-5.78 3.19 0 5.78 2.58 5.78 5.78z"/>
			</g>
		</g>
		<g id="&lt;Group&gt;">
			<g id="&lt;Group&gt;">
				<path id="&lt;Path&gt;" class="s1" d="m91.28 39.36c0 8.19 6.64 14.83 14.84 14.83 8.19 0 14.83-6.64 14.83-14.83 0-8.2-6.64-14.84-14.83-14.84-8.2 0-14.84 6.64-14.84 14.84z"/>
			</g>
			<g id="&lt;Group&gt;">
				<path id="&lt;Path&gt;" class="s5" d="m94.92 39.36c0 6.18 5.02 11.19 11.2 11.19 6.18 0 11.19-5.01 11.19-11.19 0-6.19-5.01-11.2-11.19-11.2-6.18 0-11.2 5.01-11.2 11.2z"/>
			</g>
			<g id="&lt;Group&gt;">
				<path id="&lt;Path&gt;" class="s3" d="m100.34 39.36c0 3.19 2.59 5.78 5.78 5.78 3.19 0 5.78-2.59 5.78-5.78 0-3.2-2.59-5.78-5.78-5.78-3.19 0-5.78 2.58-5.78 5.78z"/>
			</g>
		</g>
		<g id="&lt;Group&gt;">
			<path id="&lt;Path&gt;" class="s3" d="m157.98 88.06h-59.11v-7.09h59.11z"/>
		</g>
		<g id="&lt;Group&gt;">
			<path id="&lt;Path&gt;" class="s3" d="m178.89 56.9v-24.21c3.68 0 6.67 2.99 6.67 6.67v10.87c0 3.69-2.99 6.67-6.67 6.67z"/>
		</g>
		<g id="&lt;Group&gt;">
			<path id="&lt;Path&gt;" class="s1" d="m207.01 129.2h-10.13v-24.21h10.13z"/>
		</g>
		<g id="&lt;Group&gt;">
			<path id="&lt;Path&gt;" class="s3" d="m77.96 56.9v-24.21c-3.68 0-6.67 2.99-6.67 6.67v10.87c0 3.69 2.99 6.67 6.67 6.67z"/>
		</g>
		<g id="&lt;Group&gt;">
			<path id="&lt;Path&gt;" class="s1" d="m49.83 129.2h10.13v-24.21h-10.13z"/>
		</g>
		<g id="&lt;Group&gt;">
			<path id="&lt;Path&gt;" class="s5" d="m96.82 172.19h-10.13v-10.13h10.13z"/>
		</g>
		<g id="&lt;Group&gt;">
			<path id="&lt;Path&gt;" class="s5" d="m110.89 172.19h-10.13v-10.13h10.13z"/>
		</g>
		<g id="&lt;Group&gt;">
			<path id="&lt;Path&gt;" class="s6" d="m124.97 172.19h-10.13v-10.13h10.13z"/>
		</g>
		<g id="&lt;Group&gt;">
			<path id="&lt;Path&gt;" class="s3" d="m139.04 172.19h-10.13v-10.13h10.13z"/>
		</g>
		<g id="&lt;Group&gt;">
			<path id="&lt;Path&gt;" class="s3" d="m175.67 107.56h-94.49v44.39h94.49z"/>
		</g>
		<g id="&lt;Group&gt;">
			<path id="&lt;Path&gt;" class="s6" d="m170.22 167.13c0 5.51-4.47 9.97-9.98 9.97-5.51 0-9.97-4.46-9.97-9.97 0-5.51 4.46-9.98 9.97-9.98 5.51 0 9.98 4.47 9.98 9.98z"/>
		</g>
		<g id="&lt;Group&gt;">
			<path id="&lt;Path&gt;" class="s0" d="m14.39 33.46c0 1.91 1.54 3.46 3.45 3.46 1.91 0 3.45-1.55 3.45-3.46 0-1.9-1.54-3.45-3.45-3.45-1.91 0-3.45 1.55-3.45 3.45z"/>
		</g>
		<g id="&lt;Group&gt;">
			<path id="&lt;Path&gt;" class="s0" d="m235.84 201.31c0-1.91 1.55-3.45 3.46-3.45 1.9 0 3.45 1.54 3.45 3.45 0 1.91-1.55 3.45-3.45 3.45-1.91 0-3.46-1.54-3.46-3.45z"/>
		</g>
		<g id="&lt;Group&gt;">
			<g id="&lt;Group&gt;">
				<path id="&lt;Path&gt;" class="s1" d="m156.53 315.71l-9.74-8.8 18.7-35.89 9.73 5.41z"/>
			</g>
			<g id="&lt;Group&gt;">
				<path id="&lt;Path&gt;" class="s1" d="m153.9 229.96l10.57 31.34 10.75-7.01-16.03-30.48z"/>
			</g>
			<g id="&lt;Group&gt;">
				<g id="&lt;Group&gt;">
					<path id="&lt;Path&gt;" class="s3" d="m207.47 265.36c0 6.11 2.78 11.07 6.22 11.07 3.43 0 6.21-4.96 6.21-11.07 0-6.12-2.78-11.07-6.21-11.07-3.44 0-6.22 4.95-6.22 11.07z"/>
				</g>
				<g id="&lt;Group&gt;">
					<path id="&lt;Path&gt;" class="s3" d="m170.24 276.43h43.45v-22.14h-43.45z"/>
				</g>
				<g id="&lt;Group&gt;">
					<path id="&lt;Path&gt;" class="s4" d="m164.03 265.36c0 6.11 2.78 11.07 6.21 11.07 3.43 0 6.21-4.96 6.21-11.07 0-6.12-2.78-11.07-6.21-11.07-3.43 0-6.21 4.95-6.21 11.07z"/>
				</g>
			</g>
			<g id="&lt;Group&gt;">
				<path id="&lt;Path&gt;" class="s1" d="m159.19 223.81h32.07l5.28-10.09h-42.64z"/>
			</g>
			<g id="&lt;Group&gt;">
				<path id="&lt;Path&gt;" class="s0" d="m175.22 254.29h38.47l-22.43-30.48h-32.07z"/>
			</g>
			<g id="&lt;Group&gt;">
				<path id="&lt;Path&gt;" class="s3" d="m150.51 344.51l49.53-2.2-3.72-26.6h-39.79z"/>
			</g>
			<g id="&lt;Group&gt;">
				<path id="&lt;Path&gt;" class="s0" d="m156.53 315.71h39.79l18.7-39.28h-39.8z"/>
			</g>
			<g id="&lt;Group&gt;">
				<path id="&lt;Path&gt;" class="s2" d="m159.19 223.81l-5.29 6.15-12.1-16.24h12.1z"/>
			</g>
			<g id="&lt;Group&gt;">
				<path id="&lt;Path&gt;" class="s4" d="m150.51 344.51l-17.79-21.33 14.07-16.27 9.74 8.8z"/>
			</g>
		</g>
	</g>
</svg>