<svg version="1.2" xmlns="http://www.w3.org/2000/svg" viewBox="0 0 219 371" width="219" height="371">
	<style>
		.s0 { fill: #4aabb1 } 
		.s1 { fill: #3f1833 } 
		.s2 { fill: #3e8e93 } 
		.s3 { fill: #5a3950 } 
		.s4 { fill: #f9fafb } 
		.s5 { fill: #f1a20d } 
		.s6 { fill: #317276 } 
	</style>
	<g id="&lt;Group&gt;">
		<g id="&lt;Group&gt;">
			<g id="&lt;Group&gt;">
				<path id="&lt;Path&gt;" class="s0" d="m32.99 195l-4.61-1.67 3.59-9.89c2.34-6.44-1-13.58-7.43-15.91-6.43-2.34-13.58 1-15.91 7.43l-3.6 9.9-4.6-1.67 3.59-9.9c3.26-8.97 13.21-13.62 22.19-10.37 8.97 3.26 13.63 13.21 10.37 22.19z"/>
			</g>
			<g id="&lt;Group&gt;">
				<path id="&lt;Path&gt;" class="s1" d="m25.37 172.57q-1.26 0.01-2.51-0.44c-3.81-1.38-5.78-5.6-4.4-9.42l17.52-48.27c3.61-9.95 10.88-17.9 20.47-22.38 9.59-4.48 20.35-4.96 30.31-1.35 3.81 1.38 5.78 5.6 4.4 9.42-1.39 3.81-5.6 5.78-9.42 4.4-6.26-2.27-13.03-1.97-19.06 0.85-6.04 2.82-10.61 7.82-12.88 14.08l-17.52 48.27c-1.08 2.99-3.9 4.84-6.91 4.84z"/>
			</g>
			<g id="&lt;Group&gt;">
				<path id="&lt;Path&gt;" class="s0" d="m28.36 166.95c0.96-1.66 0.39-3.77-1.26-4.72-1.66-0.95-3.77-0.38-4.72 1.27-0.95 1.65-0.38 3.76 1.27 4.71 1.65 0.96 3.76 0.39 4.71-1.26z"/>
			</g>
		</g>
		<g id="&lt;Group&gt;">
			<path id="&lt;Path&gt;" class="s0" d="m40.41 240.32l29.59-25.21 24.46 4.31-18.63 35.58z"/>
		</g>
		<g id="&lt;Group&gt;">
			<path id="&lt;Path&gt;" class="s2" d="m75.83 255l18.63-35.58 6.67 7.25-13.45 29.75z"/>
		</g>
		<g id="&lt;Group&gt;">
			<path id="&lt;Path&gt;" class="s2" d="m96.04 298.49l11.93-7.91-20.29-34.16-12.68 2.35z"/>
		</g>
		<g id="&lt;Group&gt;">
			<path id="&lt;Path&gt;" class="s0" d="m38.86 257.07l13.8 33.51 43.38 7.91-21.04-39.72z"/>
		</g>
		<g id="&lt;Group&gt;">
			<path id="&lt;Path&gt;" class="s3" d="m195.94 227.07l-144.57-25.49c-2.67-0.47-4.45-3.01-3.98-5.67l1.74-9.86c0.47-2.67 3.01-4.45 5.68-3.98l144.57 25.5c2.66 0.47 4.44 3.01 3.97 5.67l-1.73 9.86c-0.47 2.66-3.02 4.44-5.68 3.97z"/>
		</g>
		<g id="&lt;Group&gt;">
			<path id="&lt;Path&gt;" class="s2" d="m180.04 204.16l-105.89-18.67c-7.99-1.41-13.33-9.04-11.92-17.04l13.27-75.29c1.41-8 9.04-13.33 17.03-11.92l105.89 18.67c7.99 1.41 13.33 9.03 11.92 17.03l-13.27 75.29c-1.41 8-9.04 13.34-17.03 11.93z"/>
		</g>
		<g id="&lt;Group&gt;">
			<path id="&lt;Path&gt;" class="s0" d="m163.3 201.2l-90.13-15.89c-7.46-1.31-12.43-8.42-11.12-15.87l13.63-77.26c1.31-7.46 8.42-12.43 15.87-11.12l90.13 15.89c7.45 1.32 12.43 8.42 11.11 15.88l-13.62 77.26c-1.32 7.45-8.42 12.43-15.87 11.11z"/>
		</g>
		<g id="&lt;Group&gt;">
			<path id="&lt;Path&gt;" class="s2" d="m70.55 170.26l13.39-75.95c0.44-2.48 2.81-4.14 5.3-3.7l91.35 16.1c2.48 0.44 4.14 2.81 3.7 5.29l-13.39 75.95c-0.44 2.49-2.81 4.15-5.29 3.71l-91.35-16.11c-2.49-0.44-4.15-2.81-3.71-5.29z"/>
		</g>
		<g id="&lt;Group&gt;">
			<path id="&lt;Path&gt;" class="s1" d="m168.97 222.32l-118.05-20.82c-2.42-0.42-4.03-2.73-3.6-5.14l1.89-10.76c0.43-2.42 2.73-4.03 5.15-3.6l118.05 20.81c2.42 0.43 4.03 2.73 3.61 5.15l-1.9 10.75c-0.43 2.42-2.73 4.04-5.15 3.61z"/>
		</g>
		<g id="&lt;Group&gt;">
			<path id="&lt;Path&gt;" class="s0" d="m198.99 77.7l-99.39-17.53 5.92-33.62c2.99-16.92 19.12-28.21 36.04-25.23l38.12 6.72c16.92 2.99 28.22 19.12 25.23 36.04z"/>
		</g>
		<g id="&lt;Group&gt;">
			<path id="&lt;Path&gt;" class="s2" d="m123.36 42.3c0-15.82 5.87-30.27 15.53-41.31-15.91-1.43-30.54 9.53-33.37 25.56l-5.92 33.62 28.05 4.95c-2.76-7.07-4.29-14.76-4.29-22.82z"/>
		</g>
		<g id="&lt;Group&gt;">
			<path id="&lt;Path&gt;" class="s2" d="m175.81 88.72l-58.21-10.26 2.59-14.66 58.21 10.27z"/>
		</g>
		<g id="&lt;Group&gt;">
			<path id="&lt;Path&gt;" class="s4" d="m168.28 82.37l-19.56-3.45c-1.54-2.2-2.4-3.44-3.94-5.64l0.88-4.98 29.14 5.14-0.88 4.98c-2.2 1.54-3.44 2.41-5.64 3.95z"/>
		</g>
		<g id="&lt;Group&gt;">
			<g id="&lt;Group&gt;">
				<path id="&lt;Path&gt;" class="s2" d="m198.13 47.13c-1.43 8.07-9.12 13.46-17.19 12.04-8.07-1.43-13.46-9.12-12.04-17.19 1.43-8.07 9.12-13.46 17.19-12.04 8.07 1.43 13.46 9.12 12.04 17.19z"/>
			</g>
			<g id="&lt;Group&gt;">
				<path id="&lt;Path&gt;" class="s4" d="m194.54 46.5c-1.07 6.09-6.88 10.15-12.97 9.08-6.09-1.08-10.15-6.88-9.08-12.97 1.08-6.09 6.88-10.15 12.97-9.08 6.09 1.07 10.15 6.88 9.08 12.97z"/>
			</g>
			<g id="&lt;Group&gt;">
				<path id="&lt;Path&gt;" class="s1" d="m189.21 45.56c-0.56 3.14-3.55 5.24-6.7 4.69-3.14-0.56-5.24-3.56-4.69-6.7 0.56-3.14 3.56-5.24 6.7-4.69 3.14 0.56 5.24 3.55 4.69 6.7z"/>
			</g>
		</g>
		<g id="&lt;Group&gt;">
			<g id="&lt;Group&gt;">
				<path id="&lt;Path&gt;" class="s2" d="m156.87 39.38c-1.42 8.07-9.12 13.46-17.18 12.04-8.07-1.42-13.46-9.12-12.04-17.19 1.42-8.07 9.12-13.46 17.19-12.03 8.07 1.42 13.46 9.12 12.03 17.18z"/>
			</g>
			<g id="&lt;Group&gt;">
				<path id="&lt;Path&gt;" class="s4" d="m153.29 38.75c-1.08 6.09-6.88 10.16-12.97 9.08-6.09-1.07-10.16-6.88-9.08-12.97 1.07-6.08 6.88-10.15 12.97-9.07 6.08 1.07 10.15 6.87 9.08 12.96z"/>
			</g>
			<g id="&lt;Group&gt;">
				<path id="&lt;Path&gt;" class="s1" d="m147.95 37.81c-0.55 3.15-3.55 5.24-6.69 4.69-3.15-0.55-5.24-3.55-4.69-6.7 0.55-3.14 3.55-5.24 6.7-4.68 3.14 0.55 5.24 3.55 4.68 6.69z"/>
			</g>
		</g>
		<g id="&lt;Group&gt;">
			<path id="&lt;Path&gt;" class="s1" d="m174.58 95.7l-58.21-10.26 1.23-6.98 58.21 10.26z"/>
		</g>
		<g id="&lt;Group&gt;">
			<path id="&lt;Path&gt;" class="s1" d="m121.79 21.49l-4.21 23.84c-3.63-0.64-6.05-4.1-5.41-7.73l1.89-10.7c0.64-3.63 4.1-6.05 7.73-5.41z"/>
		</g>
		<g id="&lt;Group&gt;">
			<path id="&lt;Path&gt;" class="s2" d="m94.46 219.42l-24.46-4.31-3.46-10.85 35.41 6.24z"/>
		</g>
		<g id="&lt;Group&gt;">
			<path id="&lt;Path&gt;" class="s4" d="m94.97 167.1l-8.66-1.53 1.75-9.97 8.67 1.53z"/>
		</g>
		<g id="&lt;Group&gt;">
			<path id="&lt;Path&gt;" class="s4" d="m107.01 169.22l-8.67-1.53 1.76-9.97 8.67 1.53z"/>
		</g>
		<g id="&lt;Group&gt;">
			<path id="&lt;Path&gt;" class="s5" d="m119.05 171.34l-8.67-1.52 1.76-9.98 8.67 1.53z"/>
		</g>
		<g id="&lt;Group&gt;">
			<path id="&lt;Path&gt;" class="s1" d="m131.09 173.47l-8.67-1.53 1.76-9.97 8.66 1.52z"/>
		</g>
		<g id="&lt;Group&gt;">
			<path id="&lt;Path&gt;" class="s1" d="m173.64 115.35l-80.82-14.26-7.71 43.71 80.82 14.25z"/>
		</g>
		<g id="&lt;Group&gt;">
			<path id="&lt;Path&gt;" class="s5" d="m158.63 173.18c-0.95 5.43-5.55 9.15-10.26 8.32-4.71-0.83-7.76-5.9-6.8-11.33 0.95-5.42 5.55-9.15 10.26-8.32 4.71 0.83 7.76 5.91 6.8 11.33z"/>
		</g>
		<g id="&lt;Group&gt;">
			<path id="&lt;Path&gt;" class="s6" d="m94.46 219.42l6.67 7.25 13.6-13.91-12.78-2.26z"/>
		</g>
		<g id="&lt;Group&gt;">
			<g id="&lt;Group&gt;">
				<path id="&lt;Path&gt;" class="s1" d="m44.61 252.31c-1.07 6.02-4.67 10.42-8.04 9.82-3.38-0.6-5.26-5.96-4.2-11.98 1.06-6.02 4.66-10.42 8.04-9.83 3.38 0.6 5.26 5.96 4.2 11.99z"/>
			</g>
			<g id="&lt;Group&gt;">
				<path id="&lt;Path&gt;" class="s1" d="m79.35 269.67l-42.78-7.54 3.84-21.81 42.78 7.55z"/>
			</g>
			<g id="&lt;Group&gt;">
				<path id="&lt;Path&gt;" class="s3" d="m87.39 259.85c-1.06 6.02-4.66 10.42-8.04 9.82-3.38-0.59-5.26-5.96-4.19-11.98 1.06-6.02 4.66-10.42 8.03-9.82 3.38 0.59 5.26 5.96 4.2 11.98z"/>
			</g>
		</g>
		<g id="&lt;Group&gt;">
			<path id="&lt;Path&gt;" class="s1" d="m96.04 298.49l3.81 25.77-56.97-14.59 9.78-19.09z"/>
		</g>
		<g id="&lt;Group&gt;">
			<path id="&lt;Path&gt;" class="s3" d="m99.85 324.26l25-22.04-16.88-11.64-11.93 7.91"/>
		</g>
		<g id="&lt;Group&gt;">
			<g id="&lt;Group&gt;">
				<path id="&lt;Path&gt;" class="s0" d="m106.94 284.03l-5.49 49.13 43.38 7.91-0.94-52.19z"/>
			</g>
			<g id="&lt;Group&gt;">
				<path id="&lt;Path&gt;" class="s2" d="m144.83 341.07l11.93-7.91-2.23-37.18-10.64-7.1z"/>
			</g>
			<g id="&lt;Group&gt;">
				<path id="&lt;Path&gt;" class="s0" d="m128.3 225.36l-19.15 46.15 36.18 6.38 5.64-49.29z"/>
			</g>
			<g id="&lt;Group&gt;">
				<path id="&lt;Path&gt;" class="s2" d="m150.97 228.6l-6.72 58.68 11.67-2.13 4.47-55.92z"/>
			</g>
			<g id="&lt;Group&gt;">
				<path id="&lt;Path&gt;" class="s2" d="m128.3 225.36l22.67 3.24 8.01-8.07-34.13-6.02z"/>
			</g>
			<g id="&lt;Group&gt;">
				<g id="&lt;Group&gt;">
					<path id="&lt;Path&gt;" class="s1" d="m113.34 283.49c-1.06 6.02-4.66 10.42-8.04 9.83-3.38-0.6-5.26-5.96-4.19-11.98 1.06-6.03 4.66-10.42 8.04-9.83 3.37 0.6 5.25 5.96 4.19 11.98z"/>
				</g>
				<g id="&lt;Group&gt;">
					<path id="&lt;Path&gt;" class="s1" d="m148.09 300.86l-42.79-7.54 3.85-21.81 42.78 7.55z"/>
				</g>
				<g id="&lt;Group&gt;">
					<path id="&lt;Path&gt;" class="s3" d="m156.13 291.04c-1.07 6.02-4.67 10.42-8.04 9.82-3.38-0.59-5.26-5.96-4.2-11.98 1.06-6.02 4.66-10.42 8.04-9.82 3.38 0.59 5.26 5.96 4.2 11.98z"/>
				</g>
			</g>
			<g id="&lt;Group&gt;">
				<path id="&lt;Path&gt;" class="s1" d="m144.83 341.07l7.09 29.67-63.57-13.19 13.1-24.39z"/>
			</g>
			<g id="&lt;Group&gt;">
				<path id="&lt;Path&gt;" class="s3" d="m151.92 370.74l19.85-12.74-15.01-24.84-11.93 7.91"/>
			</g>
			<g id="&lt;Group&gt;">
				<path id="&lt;Path&gt;" class="s6" d="m150.97 228.6l9.42 0.63 11.54-6.42-12.95-2.28z"/>
			</g>
		</g>
		<g id="&lt;Group&gt;">
			<g id="&lt;Group&gt;">
				<path id="&lt;Path&gt;" class="s0" d="m202.83 117c-4.81-0.85-9.91 5.33-11.4 13.8-1.5 8.46 1.19 16.01 5.99 16.86l8.69 1.53 5.41-30.66z"/>
			</g>
			<g id="&lt;Group&gt;">
				<path id="&lt;Path&gt;" class="s2" d="m217.51 135.4c-1.49 8.46-6.59 14.64-11.4 13.79-4.8-0.84-7.48-8.39-5.99-16.86 1.5-8.47 6.6-14.64 11.4-13.8 4.8 0.85 7.49 8.4 5.99 16.87z"/>
			</g>
		</g>
		<g id="&lt;Group&gt;">
			<g id="&lt;Group&gt;">
				<path id="&lt;Path&gt;" class="s0" d="m110.47 177.86q-0.66 0-1.33-0.05l-10.5-0.79 0.37-4.89 10.5 0.79c6.83 0.5 12.8-4.63 13.31-11.45 0.52-6.83-4.62-12.8-11.45-13.32l-10.5-0.79 0.37-4.88 10.5 0.79c9.52 0.71 16.69 9.04 15.97 18.56-0.35 4.62-2.47 8.82-5.98 11.84-3.17 2.72-7.13 4.19-11.26 4.19z"/>
			</g>
			<g id="&lt;Group&gt;">
				<path id="&lt;Path&gt;" class="s1" d="m178.96 172.95q-1.51 0-3.04-0.12l-51.2-3.85c-4.05-0.3-7.09-3.83-6.78-7.88 0.3-4.05 3.83-7.08 7.88-6.78l51.2 3.85c6.63 0.49 13.08-1.62 18.13-5.96 5.05-4.34 8.11-10.39 8.6-17.03 0.31-4.05 3.83-7.08 7.89-6.78 4.04 0.3 7.08 3.83 6.78 7.88-0.8 10.56-5.65 20.17-13.68 27.08-7.25 6.24-16.31 9.59-25.78 9.59z"/>
			</g>
			<g id="&lt;Group&gt;">
				<path id="&lt;Path&gt;" class="s0" d="m127.03 164.62c-1.64 0.97-3.76 0.43-4.73-1.21-0.98-1.64-0.44-3.75 1.2-4.73 1.64-0.97 3.76-0.43 4.74 1.21 0.97 1.64 0.43 3.76-1.21 4.73z"/>
			</g>
		</g>
	</g>
</svg>