<svg version="1.2" xmlns="http://www.w3.org/2000/svg" viewBox="0 0 257 368" width="257" height="368">
	<style>
		.s0 { fill: #4aabb1 } 
		.s1 { fill: #3f1833 } 
		.s2 { fill: #3e8e93 } 
		.s3 { fill: #f9fafb } 
		.s4 { fill: #f1a20d } 
	</style>
	<g id="&lt;Group&gt;">
		<g id="&lt;Group&gt;">
			<path id="&lt;Path&gt;" class="s0" d="m239.44 35.24c-9.55 0-17.32-7.77-17.32-17.32v-10.53h4.9v10.53c0 6.85 5.57 12.42 12.42 12.42 6.85 0 12.42-5.57 12.42-12.42v-10.53h4.9v10.53c0 9.55-7.77 17.32-17.32 17.32z"/>
		</g>
		<g id="&lt;Group&gt;">
			<path id="&lt;Path&gt;" class="s0" d="m17.7 35.24c-9.55 0-17.32-7.77-17.32-17.32v-10.53h4.9v10.53c0 6.85 5.57 12.42 12.42 12.42 6.84 0 12.41-5.57 12.41-12.42v-10.53h4.9v10.53c0 9.55-7.76 17.32-17.31 17.32z"/>
		</g>
		<g id="&lt;Group&gt;">
			<path id="&lt;Path&gt;" class="s1" d="m207.16 123.77c-4.06 0-7.35-3.29-7.35-7.35 0-4.06 3.29-7.35 7.35-7.35 13.74 0 24.93-11.19 24.93-24.93v-51.35c0-4.06 3.29-7.35 7.35-7.35 4.06 0 7.35 3.29 7.35 7.35v51.35c0 21.85-17.78 39.63-39.63 39.63z"/>
		</g>
		<g id="&lt;Group&gt;">
			<path id="&lt;Path&gt;" class="s1" d="m49.98 123.77c-21.86 0-39.64-17.78-39.64-39.63v-51.35c0-4.06 3.3-7.35 7.36-7.35 4.06 0 7.35 3.29 7.35 7.35v51.35c0 13.74 11.18 24.93 24.93 24.93 4.06 0 7.35 3.29 7.35 7.35 0 4.06-3.29 7.35-7.35 7.35z"/>
		</g>
		<g id="&lt;Group&gt;">
			<path id="&lt;Path&gt;" class="s0" d="m182.33 193.24h-107.52c-8.12 0-14.7-6.59-14.7-14.71v-76.45c0-8.12 6.58-14.7 14.7-14.7h107.52c8.12 0 14.7 6.58 14.7 14.7v76.45c0 8.12-6.58 14.71-14.7 14.71z"/>
		</g>
		<g id="&lt;Group&gt;">
			<path id="&lt;Path&gt;" class="s2" d="m74.81 183.43c-2.7 0-4.9-2.19-4.9-4.9v-76.45c0-2.7 2.2-4.9 4.9-4.9h107.52c2.7 0 4.9 2.2 4.9 4.9v76.45c0 2.71-2.2 4.9-4.9 4.9z"/>
		</g>
		<g id="&lt;Group&gt;">
			<path id="&lt;Path&gt;" class="s1" d="m201.97 213.04h-146.8c-2.71 0-4.9-2.19-4.9-4.9v-10c0-2.71 2.19-4.9 4.9-4.9h146.8c2.7 0 4.9 2.19 4.9 4.9v10c0 2.71-2.2 4.9-4.9 4.9z"/>
		</g>
		<g id="&lt;Group&gt;">
			<path id="&lt;Path&gt;" class="s0" d="m179.03 65.41h-100.92v-34.14c0-17.18 13.92-31.11 31.1-31.11h38.72c17.17 0 31.1 13.93 31.1 31.11z"/>
		</g>
		<g id="&lt;Group&gt;">
			<path id="&lt;Path&gt;" class="s2" d="m158.12 80.29h-59.11v-14.88h59.11z"/>
		</g>
		<g id="&lt;Group&gt;">
			<path id="&lt;Path&gt;" class="s3" d="m138.5 75.33h-19.86c-1.9-1.9-2.97-2.96-4.87-4.86v-5.06h29.59v5.06c-1.9 1.9-2.96 2.96-4.86 4.86z"/>
		</g>
		<g id="&lt;Group&gt;">
			<g id="&lt;Group&gt;">
				<path id="&lt;Path&gt;" class="s2" d="m165.71 38.68c0 8.19-6.64 14.83-14.84 14.83-8.19 0-14.83-6.64-14.83-14.83 0-8.2 6.64-14.84 14.83-14.84 8.2 0 14.84 6.64 14.84 14.84z"/>
			</g>
			<g id="&lt;Group&gt;">
				<path id="&lt;Path&gt;" class="s3" d="m162.07 38.68c0 6.18-5.01 11.19-11.2 11.19-6.18 0-11.19-5.01-11.19-11.19 0-6.18 5.01-11.2 11.19-11.2 6.19 0 11.2 5.02 11.2 11.2z"/>
			</g>
			<g id="&lt;Group&gt;">
				<path id="&lt;Path&gt;" class="s1" d="m156.65 38.68c0 3.19-2.58 5.78-5.78 5.78-3.19 0-5.78-2.59-5.78-5.78 0-3.19 2.59-5.78 5.78-5.78 3.2 0 5.78 2.59 5.78 5.78z"/>
			</g>
		</g>
		<g id="&lt;Group&gt;">
			<g id="&lt;Group&gt;">
				<path id="&lt;Path&gt;" class="s2" d="m91.43 38.68c0 8.19 6.64 14.83 14.83 14.83 8.2 0 14.84-6.64 14.84-14.83 0-8.2-6.64-14.84-14.84-14.84-8.19 0-14.83 6.64-14.83 14.84z"/>
			</g>
			<g id="&lt;Group&gt;">
				<path id="&lt;Path&gt;" class="s3" d="m95.07 38.68c0 6.18 5.01 11.19 11.19 11.19 6.18 0 11.2-5.01 11.2-11.19 0-6.18-5.02-11.2-11.2-11.2-6.18 0-11.19 5.02-11.19 11.2z"/>
			</g>
			<g id="&lt;Group&gt;">
				<path id="&lt;Path&gt;" class="s1" d="m100.48 38.68c0 3.19 2.59 5.78 5.78 5.78 3.19 0 5.78-2.59 5.78-5.78 0-3.19-2.59-5.78-5.78-5.78-3.19 0-5.78 2.59-5.78 5.78z"/>
			</g>
		</g>
		<g id="&lt;Group&gt;">
			<path id="&lt;Path&gt;" class="s1" d="m158.12 87.38h-59.11v-7.09h59.11z"/>
		</g>
		<g id="&lt;Group&gt;">
			<path id="&lt;Path&gt;" class="s1" d="m179.03 56.22v-24.21c3.68 0 6.67 2.99 6.67 6.68v10.86c0 3.69-2.99 6.67-6.67 6.67z"/>
		</g>
		<g id="&lt;Group&gt;">
			<path id="&lt;Path&gt;" class="s2" d="m207.16 128.53h-10.13v-24.22h10.13z"/>
		</g>
		<g id="&lt;Group&gt;">
			<path id="&lt;Path&gt;" class="s1" d="m78.11 56.22v-24.21c-3.69 0-6.68 2.99-6.68 6.68v10.86c0 3.69 2.99 6.67 6.68 6.67z"/>
		</g>
		<g id="&lt;Group&gt;">
			<path id="&lt;Path&gt;" class="s2" d="m107.93 223.13h-32.07l-5.28-10.09h42.64z"/>
		</g>
		<g id="&lt;Group&gt;">
			<path id="&lt;Path&gt;" class="s0" d="m113.22 264.68h-42.64l5.28-41.55h32.07z"/>
		</g>
		<g id="&lt;Group&gt;">
			<path id="&lt;Path&gt;" class="s1" d="m123.13 367.41h-62.46l6.01-23.73h50.43z"/>
		</g>
		<g id="&lt;Group&gt;">
			<path id="&lt;Path&gt;" class="s0" d="m113.22 343.68h-42.64v-64.17h42.64z"/>
		</g>
		<g id="&lt;Group&gt;">
			<path id="&lt;Path&gt;" class="s1" d="m117.11 279.51h-50.43v-14.83h50.43z"/>
		</g>
		<g id="&lt;Group&gt;">
			<path id="&lt;Path&gt;" class="s2" d="m149.2 223.13h32.07l5.29-10.09h-42.64z"/>
		</g>
		<g id="&lt;Group&gt;">
			<path id="&lt;Path&gt;" class="s0" d="m143.92 264.68h42.64l-5.29-41.55h-32.07z"/>
		</g>
		<g id="&lt;Group&gt;">
			<path id="&lt;Path&gt;" class="s1" d="m134.01 367.41h62.46l-6.02-23.73h-50.43z"/>
		</g>
		<g id="&lt;Group&gt;">
			<path id="&lt;Path&gt;" class="s0" d="m143.92 343.68h42.64v-64.17h-42.64z"/>
		</g>
		<g id="&lt;Group&gt;">
			<path id="&lt;Path&gt;" class="s1" d="m140.02 279.51h50.43v-14.83h-50.43z"/>
		</g>
		<g id="&lt;Group&gt;">
			<path id="&lt;Path&gt;" class="s2" d="m49.98 128.53h10.13v-24.22h-10.13z"/>
		</g>
		<g id="&lt;Group&gt;">
			<path id="&lt;Path&gt;" class="s3" d="m96.96 171.51h-10.13v-10.12h10.13z"/>
		</g>
		<g id="&lt;Group&gt;">
			<path id="&lt;Path&gt;" class="s3" d="m111.04 171.51h-10.13v-10.12h10.13z"/>
		</g>
		<g id="&lt;Group&gt;">
			<path id="&lt;Path&gt;" class="s4" d="m125.11 171.51h-10.13v-10.12h10.13z"/>
		</g>
		<g id="&lt;Group&gt;">
			<path id="&lt;Path&gt;" class="s1" d="m139.19 171.51h-10.13v-10.12h10.13z"/>
		</g>
		<g id="&lt;Group&gt;">
			<path id="&lt;Path&gt;" class="s1" d="m175.81 106.89h-94.49v44.38h94.49z"/>
		</g>
		<g id="&lt;Group&gt;">
			<path id="&lt;Path&gt;" class="s4" d="m170.36 166.45c0 5.51-4.46 9.98-9.97 9.98-5.51 0-9.98-4.47-9.98-9.98 0-5.51 4.47-9.98 9.98-9.98 5.51 0 9.97 4.47 9.97 9.98z"/>
		</g>
		<g id="&lt;Group&gt;">
			<path id="&lt;Path&gt;" class="s0" d="m242.89 32.79c0 1.9-1.54 3.45-3.45 3.45-1.91 0-3.45-1.55-3.45-3.45 0-1.91 1.54-3.46 3.45-3.46 1.91 0 3.45 1.55 3.45 3.46z"/>
		</g>
		<g id="&lt;Group&gt;">
			<path id="&lt;Path&gt;" class="s0" d="m21.15 32.79c0 1.9-1.55 3.45-3.45 3.45-1.91 0-3.46-1.55-3.46-3.45 0-1.91 1.55-3.46 3.46-3.46 1.9 0 3.45 1.55 3.45 3.46z"/>
		</g>
	</g>
</svg>