<svg version="1.2" xmlns="http://www.w3.org/2000/svg" viewBox="0 0 256 369" width="256" height="369">
	<style>
		.s0 { fill: #3e8e93 } 
		.s1 { fill: #4aabb1 } 
		.s2 { fill: #3f1833 } 
		.s3 { fill: #f9fafb } 
		.s4 { fill: #f1a20d } 
		.s5 { fill: #5a3950 } 
	</style>
	<g id="&lt;Group&gt;">
		<g id="&lt;Group&gt;">
			<path id="&lt;Path&gt;" class="s0" d="m160.39 246.86l-13.75-16.87-6.74-16.27h2.4l5.29 10.09 16.03 12.37 0.67 10.68z"/>
		</g>
		<g id="&lt;Group&gt;">
			<path id="&lt;Path&gt;" class="s1" d="m179.66 223.81l27.27 12.37h-43.31l-16.03-12.37z"/>
		</g>
		<g id="&lt;Group&gt;">
			<path id="&lt;Path&gt;" class="s1" d="m237.82 35.92c-9.55 0-17.32-7.77-17.32-17.32v-10.53h4.91v10.53c0 6.84 5.57 12.41 12.41 12.41 6.85 0 12.42-5.57 12.42-12.41v-10.53h4.9v10.53c0 9.55-7.77 17.32-17.32 17.32z"/>
		</g>
		<g id="&lt;Group&gt;">
			<path id="&lt;Path&gt;" class="s1" d="m35.5 226.13h-4.91v-10.53c0-6.85-5.57-12.42-12.41-12.42-6.85 0-12.42 5.57-12.42 12.42v10.53h-4.9v-10.53c0-9.55 7.77-17.32 17.32-17.32 9.55 0 17.32 7.77 17.32 17.32z"/>
		</g>
		<g id="&lt;Group&gt;">
			<path id="&lt;Path&gt;" class="s2" d="m205.54 124.45c-4.06 0-7.35-3.29-7.35-7.35 0-4.06 3.29-7.35 7.35-7.35 13.75 0 24.93-11.19 24.93-24.93v-51.36c0-4.06 3.29-7.35 7.35-7.35 4.06 0 7.35 3.29 7.35 7.35v51.36c0 21.85-17.77 39.63-39.63 39.63z"/>
		</g>
		<g id="&lt;Group&gt;">
			<path id="&lt;Path&gt;" class="s2" d="m18.18 208.08c-4.06 0-7.35-3.29-7.35-7.35v-51.35c0-21.85 17.77-39.63 39.63-39.63 4.06 0 7.35 3.29 7.35 7.35 0 4.06-3.29 7.35-7.35 7.35-13.75 0-24.93 11.18-24.93 24.93v51.35c0 4.06-3.29 7.35-7.35 7.35z"/>
		</g>
		<g id="&lt;Group&gt;">
			<path id="&lt;Path&gt;" class="s1" d="m180.71 193.91h-107.52c-8.12 0-14.7-6.58-14.7-14.7v-76.45c0-8.12 6.58-14.7 14.7-14.7h107.52c8.12 0 14.7 6.58 14.7 14.7v76.45c0 8.12-6.58 14.7-14.7 14.7z"/>
		</g>
		<g id="&lt;Group&gt;">
			<path id="&lt;Path&gt;" class="s0" d="m73.19 184.11c-2.7 0-4.9-2.19-4.9-4.9v-76.45c0-2.71 2.2-4.9 4.9-4.9h107.52c2.7 0 4.9 2.19 4.9 4.9v76.45c0 2.71-2.2 4.9-4.9 4.9z"/>
		</g>
		<g id="&lt;Group&gt;">
			<path id="&lt;Path&gt;" class="s2" d="m200.35 213.72h-146.8c-2.7 0-4.9-2.19-4.9-4.9v-10c0-2.71 2.2-4.91 4.9-4.91h146.8c2.71 0 4.9 2.2 4.9 4.91v10c0 2.71-2.19 4.9-4.9 4.9z"/>
		</g>
		<g id="&lt;Group&gt;">
			<path id="&lt;Path&gt;" class="s1" d="m177.41 66.09h-100.92v-34.14c0-17.18 13.93-31.11 31.1-31.11h38.72c17.18 0 31.1 13.93 31.1 31.11z"/>
		</g>
		<g id="&lt;Group&gt;">
			<path id="&lt;Path&gt;" class="s0" d="m156.5 80.97h-59.1v-14.88h59.1z"/>
		</g>
		<g id="&lt;Group&gt;">
			<path id="&lt;Path&gt;" class="s3" d="m136.88 76.01h-19.86c-1.9-1.9-2.97-2.97-4.86-4.87v-5.05h29.59v5.05c-1.9 1.9-2.97 2.97-4.87 4.87z"/>
		</g>
		<g id="&lt;Group&gt;">
			<g id="&lt;Group&gt;">
				<path id="&lt;Path&gt;" class="s0" d="m164.09 39.36c0 8.19-6.64 14.83-14.83 14.83-8.2 0-14.84-6.64-14.84-14.83 0-8.2 6.64-14.84 14.84-14.84 8.19 0 14.83 6.64 14.83 14.84z"/>
			</g>
			<g id="&lt;Group&gt;">
				<path id="&lt;Path&gt;" class="s3" d="m160.45 39.36c0 6.18-5.01 11.19-11.19 11.19-6.19 0-11.2-5.01-11.2-11.19 0-6.19 5.01-11.2 11.2-11.2 6.18 0 11.19 5.01 11.19 11.2z"/>
			</g>
			<g id="&lt;Group&gt;">
				<path id="&lt;Path&gt;" class="s2" d="m155.04 39.36c0 3.19-2.59 5.78-5.78 5.78-3.19 0-5.78-2.59-5.78-5.78 0-3.2 2.59-5.78 5.78-5.78 3.19 0 5.78 2.58 5.78 5.78z"/>
			</g>
		</g>
		<g id="&lt;Group&gt;">
			<g id="&lt;Group&gt;">
				<path id="&lt;Path&gt;" class="s0" d="m89.81 39.36c0 8.19 6.64 14.83 14.84 14.83 8.19 0 14.83-6.64 14.83-14.83 0-8.2-6.64-14.84-14.83-14.84-8.2 0-14.84 6.64-14.84 14.84z"/>
			</g>
			<g id="&lt;Group&gt;">
				<path id="&lt;Path&gt;" class="s3" d="m93.45 39.36c0 6.18 5.01 11.19 11.2 11.19 6.18 0 11.19-5.01 11.19-11.19 0-6.19-5.01-11.2-11.19-11.2-6.19 0-11.2 5.01-11.2 11.2z"/>
			</g>
			<g id="&lt;Group&gt;">
				<path id="&lt;Path&gt;" class="s2" d="m98.87 39.36c0 3.19 2.58 5.78 5.78 5.78 3.19 0 5.77-2.59 5.77-5.78 0-3.2-2.58-5.78-5.77-5.78-3.2 0-5.78 2.58-5.78 5.78z"/>
			</g>
		</g>
		<g id="&lt;Group&gt;">
			<path id="&lt;Path&gt;" class="s2" d="m156.5 88.06h-59.1v-7.09h59.1z"/>
		</g>
		<g id="&lt;Group&gt;">
			<path id="&lt;Path&gt;" class="s2" d="m177.41 56.9v-24.21c3.69 0 6.68 2.99 6.68 6.67v10.87c0 3.69-2.99 6.67-6.68 6.67z"/>
		</g>
		<g id="&lt;Group&gt;">
			<path id="&lt;Path&gt;" class="s0" d="m205.54 129.2h-10.13v-24.21h10.13z"/>
		</g>
		<g id="&lt;Group&gt;">
			<path id="&lt;Path&gt;" class="s2" d="m76.49 56.9v-24.21c-3.69 0-6.67 2.99-6.67 6.67v10.87c0 3.69 2.98 6.67 6.67 6.67z"/>
		</g>
		<g id="&lt;Group&gt;">
			<path id="&lt;Path&gt;" class="s0" d="m106.32 223.81h-32.07l-5.29-10.09h42.64z"/>
		</g>
		<g id="&lt;Group&gt;">
			<path id="&lt;Path&gt;" class="s1" d="m111.6 265.36h-42.64l5.29-41.55h32.07z"/>
		</g>
		<g id="&lt;Group&gt;">
			<path id="&lt;Path&gt;" class="s2" d="m121.51 368.09h-62.46l6.01-23.73h50.44z"/>
		</g>
		<g id="&lt;Group&gt;">
			<path id="&lt;Path&gt;" class="s1" d="m111.6 344.36h-42.64v-64.17h42.64z"/>
		</g>
		<g id="&lt;Group&gt;">
			<path id="&lt;Path&gt;" class="s2" d="m115.5 280.19h-50.44v-14.83h50.44z"/>
		</g>
		<g id="&lt;Group&gt;">
			<path id="&lt;Path&gt;" class="s0" d="m147.59 223.81h32.07l5.28-10.09h-42.64z"/>
		</g>
		<g id="&lt;Group&gt;">
			<path id="&lt;Path&gt;" class="s0" d="m48.36 129.2h10.13v-24.21h-10.13z"/>
		</g>
		<g id="&lt;Group&gt;">
			<path id="&lt;Path&gt;" class="s3" d="m95.34 172.19h-10.12v-10.13h10.12z"/>
		</g>
		<g id="&lt;Group&gt;">
			<path id="&lt;Path&gt;" class="s3" d="m109.42 172.19h-10.13v-10.13h10.13z"/>
		</g>
		<g id="&lt;Group&gt;">
			<path id="&lt;Path&gt;" class="s4" d="m123.49 172.19h-10.12v-10.13h10.12z"/>
		</g>
		<g id="&lt;Group&gt;">
			<path id="&lt;Path&gt;" class="s2" d="m137.57 172.19h-10.13v-10.13h10.13z"/>
		</g>
		<g id="&lt;Group&gt;">
			<path id="&lt;Path&gt;" class="s2" d="m174.2 107.56h-94.49v44.39h94.49z"/>
		</g>
		<g id="&lt;Group&gt;">
			<path id="&lt;Path&gt;" class="s4" d="m168.75 167.13c0 5.51-4.47 9.97-9.98 9.97-5.51 0-9.97-4.46-9.97-9.97 0-5.51 4.46-9.98 9.97-9.98 5.51 0 9.98 4.47 9.98 9.98z"/>
		</g>
		<g id="&lt;Group&gt;">
			<path id="&lt;Path&gt;" class="s1" d="m241.28 33.46c0 1.91-1.55 3.46-3.46 3.46-1.9 0-3.45-1.55-3.45-3.46 0-1.9 1.55-3.45 3.45-3.45 1.91 0 3.46 1.55 3.46 3.45z"/>
		</g>
		<g id="&lt;Group&gt;">
			<path id="&lt;Path&gt;" class="s1" d="m21.63 200.73c0-1.91-1.55-3.45-3.45-3.45-1.91 0-3.46 1.54-3.46 3.45 0 1.91 1.55 3.45 3.46 3.45 1.9 0 3.45-1.54 3.45-3.45z"/>
		</g>
		<g id="&lt;Group&gt;">
			<path id="&lt;Path&gt;" class="s5" d="m216.84 338.91h-62.46l6.01-23.73h50.44z"/>
		</g>
		<g id="&lt;Group&gt;">
			<path id="&lt;Path&gt;" class="s2" d="m216.84 338.91h-50.08l4.82-23.73h40.44z"/>
		</g>
		<g id="&lt;Group&gt;">
			<path id="&lt;Path&gt;" class="s0" d="m206.93 315.18h-42.64v-64.17h42.64z"/>
		</g>
		<g id="&lt;Group&gt;">
			<path id="&lt;Path&gt;" class="s1" d="m206.93 315.18h-35.06v-64.17h35.06z"/>
		</g>
		<g id="&lt;Group&gt;">
			<path id="&lt;Path&gt;" class="s5" d="m210.83 251.01h-50.44v-14.83h50.44z"/>
		</g>
		<g id="&lt;Group&gt;">
			<path id="&lt;Path&gt;" class="s2" d="m210.83 251.01h-42.08v-14.83h42.08z"/>
		</g>
	</g>
</svg>