<svg version="1.2" xmlns="http://www.w3.org/2000/svg" viewBox="0 0 216 401" width="216" height="401">
	<style>
		.s0 { fill: #4aabb1 } 
		.s1 { fill: #3f1833 } 
		.s2 { fill: #3e8e93 } 
		.s3 { fill: #5a3950 } 
		.s4 { fill: #f9fafb } 
		.s5 { fill: #f1a20d } 
		.s6 { fill: #317276 } 
	</style>
	<g id="&lt;Group&gt;">
		<g id="&lt;Group&gt;">
			<path id="&lt;Path&gt;" class="s0" d="m41.51 30.96q-1.51 0-3.04-0.27c-4.56-0.8-8.53-3.33-11.18-7.12-2.65-3.79-3.67-8.39-2.87-12.94l1.83-10.37 4.83 0.85-1.83 10.37c-0.58 3.27 0.15 6.56 2.05 9.28 1.91 2.72 4.75 4.53 8.02 5.1 3.27 0.58 6.56-0.15 9.28-2.05 2.72-1.9 4.53-4.75 5.11-8.02l1.83-10.37 4.82 0.85-1.83 10.37c-0.8 4.56-3.33 8.53-7.12 11.18-2.94 2.06-6.37 3.14-9.9 3.14z"/>
		</g>
		<g id="&lt;Group&gt;">
			<path id="&lt;Path&gt;" class="s1" d="m56.17 123.6q-0.63 0-1.28-0.11c-21.52-3.8-35.95-24.4-32.15-45.92l8.91-50.57c0.71-4 4.53-6.65 8.52-5.96 4 0.7 6.67 4.52 5.96 8.51l-8.91 50.57c-2.39 13.54 6.68 26.5 20.22 28.89 4 0.7 6.67 4.51 5.97 8.51-0.63 3.57-3.73 6.08-7.24 6.08z"/>
		</g>
		<g id="&lt;Group&gt;">
			<path id="&lt;Path&gt;" class="s0" d="m42.35 28.28c0 1.9-1.55 3.45-3.45 3.45-1.91 0-3.46-1.55-3.46-3.45 0-1.91 1.55-3.46 3.46-3.46 1.9 0 3.45 1.55 3.45 3.46z"/>
		</g>
		<g id="&lt;Group&gt;">
			<path id="&lt;Path&gt;" class="s0" d="m23.32 249.82l29.59-25.21 24.47 4.31-18.64 35.58z"/>
		</g>
		<g id="&lt;Group&gt;">
			<path id="&lt;Path&gt;" class="s2" d="m58.74 264.5l18.64-35.58 6.66 7.25-13.44 29.75z"/>
		</g>
		<g id="&lt;Group&gt;">
			<path id="&lt;Path&gt;" class="s2" d="m57.1 328.07l11.93-7.91-1.4-44.05-9.72-7.84z"/>
		</g>
		<g id="&lt;Group&gt;">
			<path id="&lt;Path&gt;" class="s0" d="m21.77 266.56l-8.05 53.6 43.38 7.91 0.81-59.8z"/>
		</g>
		<g id="&lt;Group&gt;">
			<path id="&lt;Path&gt;" class="s3" d="m178.85 236.57l-144.57-25.49c-2.66-0.47-4.44-3.01-3.97-5.68l1.74-9.85c0.47-2.67 3.01-4.45 5.67-3.98l144.57 25.49c2.67 0.47 4.45 3.02 3.98 5.68l-1.74 9.86c-0.47 2.66-3.01 4.44-5.68 3.97z"/>
		</g>
		<g id="&lt;Group&gt;">
			<path id="&lt;Path&gt;" class="s2" d="m162.95 213.65l-105.88-18.67c-8-1.41-13.34-9.03-11.93-17.03l13.28-75.29c1.41-8 9.03-13.34 17.03-11.93l105.88 18.67c8 1.41 13.34 9.04 11.93 17.03l-13.28 75.3c-1.41 7.99-9.04 13.33-17.03 11.92z"/>
		</g>
		<g id="&lt;Group&gt;">
			<path id="&lt;Path&gt;" class="s0" d="m146.21 210.7l-90.13-15.89c-7.45-1.31-12.43-8.42-11.11-15.87l13.62-77.27c1.31-7.45 8.42-12.43 15.87-11.11l90.13 15.89c7.45 1.31 12.43 8.42 11.11 15.87l-13.62 77.27c-1.31 7.45-8.42 12.43-15.87 11.11z"/>
		</g>
		<g id="&lt;Group&gt;">
			<path id="&lt;Path&gt;" class="s2" d="m53.46 179.76l13.4-75.95c0.44-2.49 2.8-4.14 5.29-3.71l91.35 16.11c2.48 0.44 4.14 2.81 3.7 5.29l-13.39 75.95c-0.44 2.49-2.8 4.15-5.29 3.71l-91.35-16.11c-2.48-0.44-4.14-2.81-3.71-5.29z"/>
		</g>
		<g id="&lt;Group&gt;">
			<path id="&lt;Path&gt;" class="s1" d="m151.89 231.82l-118.06-20.82c-2.41-0.43-4.03-2.73-3.6-5.15l1.89-10.75c0.43-2.42 2.74-4.03 5.15-3.61l118.06 20.82c2.41 0.43 4.03 2.73 3.6 5.15l-1.9 10.75c-0.42 2.42-2.73 4.03-5.14 3.61z"/>
		</g>
		<g id="&lt;Group&gt;">
			<path id="&lt;Path&gt;" class="s0" d="m181.9 87.19l-99.39-17.52 5.93-33.62c2.98-16.92 19.11-28.21 36.03-25.23l38.13 6.72c16.91 2.98 28.21 19.12 25.23 36.03z"/>
		</g>
		<g id="&lt;Group&gt;">
			<path id="&lt;Path&gt;" class="s2" d="m174.97 22.68c-6.78 26.48-22.67 47.3-42.68 55.77l49.61 8.74 5.93-33.62c2.17-12.31-3.24-24.18-12.86-30.89z"/>
		</g>
		<g id="&lt;Group&gt;">
			<path id="&lt;Path&gt;" class="s2" d="m158.72 98.22l-58.21-10.26 2.59-14.66 58.21 10.26z"/>
		</g>
		<g id="&lt;Group&gt;">
			<path id="&lt;Path&gt;" class="s4" d="m128.66 87.88l-19.56-3.45c-1.54-2.2-2.41-3.43-3.95-5.63l0.88-4.98 29.14 5.14-0.88 4.98c-2.2 1.54-3.43 2.4-5.63 3.94z"/>
		</g>
		<g id="&lt;Group&gt;">
			<g id="&lt;Group&gt;">
				<path id="&lt;Path&gt;" class="s2" d="m162.48 56.63c-1.42 8.07-9.12 13.46-17.19 12.03-8.07-1.42-13.46-9.11-12.03-17.18 1.42-8.07 9.12-13.46 17.18-12.04 8.07 1.42 13.46 9.12 12.04 17.19z"/>
			</g>
			<g id="&lt;Group&gt;">
				<path id="&lt;Path&gt;" class="s4" d="m158.89 56c-1.07 6.08-6.88 10.15-12.97 9.08-6.08-1.08-10.15-6.88-9.07-12.97 1.07-6.09 6.87-10.15 12.96-9.08 6.09 1.07 10.16 6.88 9.08 12.97z"/>
			</g>
			<g id="&lt;Group&gt;">
				<path id="&lt;Path&gt;" class="s1" d="m153.56 55.06c-0.55 3.14-3.55 5.24-6.69 4.68-3.15-0.55-5.25-3.55-4.69-6.69 0.55-3.14 3.55-5.24 6.69-4.69 3.15 0.55 5.24 3.55 4.69 6.7z"/>
			</g>
		</g>
		<g id="&lt;Group&gt;">
			<g id="&lt;Group&gt;">
				<path id="&lt;Path&gt;" class="s2" d="m91.96 44.19c-1.16 6.62 3.25 12.92 9.86 14.09 6.62 1.16 12.92-3.25 14.09-9.86 1.16-6.62-3.25-12.92-9.86-14.09-6.62-1.16-12.92 3.25-14.09 9.86z"/>
			</g>
			<g id="&lt;Group&gt;">
				<path id="&lt;Path&gt;" class="s4" d="m94.9 44.71c-0.88 4.99 2.45 9.75 7.44 10.63 4.99 0.88 9.75-2.45 10.63-7.44 0.88-4.99-2.45-9.75-7.44-10.63-4.99-0.88-9.75 2.45-10.63 7.44z"/>
			</g>
			<g id="&lt;Group&gt;">
				<path id="&lt;Path&gt;" class="s1" d="m99.27 45.48c-0.45 2.58 1.27 5.03 3.84 5.49 2.58 0.45 5.03-1.27 5.49-3.84 0.45-2.58-1.27-5.03-3.84-5.49-2.58-0.45-5.03 1.27-5.49 3.84z"/>
			</g>
		</g>
		<g id="&lt;Group&gt;">
			<path id="&lt;Path&gt;" class="s1" d="m157.49 105.2l-58.21-10.26 1.23-6.98 58.21 10.26z"/>
		</g>
		<g id="&lt;Group&gt;">
			<path id="&lt;Path&gt;" class="s1" d="m168.54 75.51l4.2-23.84c3.63 0.64 6.05 4.1 5.41 7.73l-1.88 10.7c-0.64 3.63-4.1 6.05-7.73 5.41z"/>
		</g>
		<g id="&lt;Group&gt;">
			<path id="&lt;Path&gt;" class="s2" d="m77.38 228.92l-24.47-4.31-3.45-10.85 35.4 6.24z"/>
		</g>
		<g id="&lt;Group&gt;">
			<path id="&lt;Path&gt;" class="s4" d="m77.88 176.6l-8.66-1.53 1.76-9.97 8.66 1.52z"/>
		</g>
		<g id="&lt;Group&gt;">
			<path id="&lt;Path&gt;" class="s4" d="m89.92 178.72l-8.66-1.53 1.76-9.97 8.66 1.53z"/>
		</g>
		<g id="&lt;Group&gt;">
			<path id="&lt;Path&gt;" class="s5" d="m101.96 180.84l-8.66-1.53 1.76-9.97 8.66 1.53z"/>
		</g>
		<g id="&lt;Group&gt;">
			<path id="&lt;Path&gt;" class="s1" d="m114 182.96l-8.66-1.52 1.75-9.98 8.67 1.53z"/>
		</g>
		<g id="&lt;Group&gt;">
			<path id="&lt;Path&gt;" class="s1" d="m156.55 124.84l-80.82-14.25-7.71 43.71 80.82 14.25z"/>
		</g>
		<g id="&lt;Group&gt;">
			<path id="&lt;Path&gt;" class="s5" d="m141.55 182.68c-0.96 5.43-5.56 9.15-10.27 8.32-4.71-0.83-7.76-5.9-6.8-11.33 0.96-5.42 5.55-9.15 10.26-8.32 4.72 0.83 7.76 5.9 6.81 11.33z"/>
		</g>
		<g id="&lt;Group&gt;">
			<path id="&lt;Path&gt;" class="s6" d="m77.38 228.92l6.66 7.25 13.61-13.92-12.79-2.25z"/>
		</g>
		<g id="&lt;Group&gt;">
			<g id="&lt;Group&gt;">
				<path id="&lt;Path&gt;" class="s1" d="m27.52 261.8c-1.06 6.03-4.66 10.42-8.04 9.83-3.38-0.6-5.26-5.96-4.2-11.98 1.07-6.02 4.67-10.42 8.04-9.83 3.38 0.6 5.26 5.96 4.2 11.98z"/>
			</g>
			<g id="&lt;Group&gt;">
				<path id="&lt;Path&gt;" class="s1" d="m62.26 279.17l-42.78-7.54 3.84-21.81 42.79 7.55z"/>
			</g>
			<g id="&lt;Group&gt;">
				<path id="&lt;Path&gt;" class="s3" d="m70.3 269.35c-1.06 6.02-4.66 10.42-8.04 9.82-3.38-0.59-5.25-5.96-4.19-11.98 1.06-6.02 4.66-10.42 8.04-9.82 3.38 0.59 5.25 5.96 4.19 11.98z"/>
			</g>
		</g>
		<g id="&lt;Group&gt;">
			<path id="&lt;Path&gt;" class="s1" d="m57.1 328.07l7.09 29.67-63.57-13.19 13.1-24.39z"/>
		</g>
		<g id="&lt;Group&gt;">
			<path id="&lt;Path&gt;" class="s3" d="m64.19 357.74l19.85-12.74-15.01-24.84-11.93 7.91"/>
		</g>
		<g id="&lt;Group&gt;">
			<g id="&lt;Group&gt;">
				<path id="&lt;Path&gt;" class="s0" d="m89.85 293.53l-5.49 69.73 43.38 7.91-0.94-72.79z"/>
			</g>
			<g id="&lt;Group&gt;">
				<path id="&lt;Path&gt;" class="s2" d="m127.74 371.17l11.93-7.91-2.23-57.78-10.64-7.1z"/>
			</g>
			<g id="&lt;Group&gt;">
				<path id="&lt;Path&gt;" class="s0" d="m111.21 234.86l-19.15 46.15 36.18 6.38 5.65-49.29z"/>
			</g>
			<g id="&lt;Group&gt;">
				<path id="&lt;Path&gt;" class="s2" d="m133.89 238.1l-6.73 58.68 11.67-2.13 4.48-55.92z"/>
			</g>
			<g id="&lt;Group&gt;">
				<path id="&lt;Path&gt;" class="s2" d="m111.21 234.86l22.68 3.24 8.01-8.08-34.14-6.02z"/>
			</g>
			<g id="&lt;Group&gt;">
				<g id="&lt;Group&gt;">
					<path id="&lt;Path&gt;" class="s1" d="m96.25 292.99c-1.06 6.02-4.66 10.42-8.04 9.82-3.37-0.59-5.25-5.96-4.19-11.98 1.06-6.02 4.66-10.42 8.04-9.82 3.38 0.59 5.26 5.96 4.19 11.98z"/>
				</g>
				<g id="&lt;Group&gt;">
					<path id="&lt;Path&gt;" class="s1" d="m131 310.36l-42.79-7.55 3.85-21.8 42.78 7.54z"/>
				</g>
				<g id="&lt;Group&gt;">
					<path id="&lt;Path&gt;" class="s3" d="m139.04 300.53c-1.06 6.03-4.66 10.42-8.04 9.83-3.38-0.6-5.26-5.96-4.2-11.98 1.07-6.02 4.66-10.42 8.04-9.83 3.38 0.6 5.26 5.96 4.2 11.98z"/>
				</g>
			</g>
			<g id="&lt;Group&gt;">
				<path id="&lt;Path&gt;" class="s1" d="m127.74 371.17l7.09 29.67-63.57-13.19 13.1-24.39z"/>
			</g>
			<g id="&lt;Group&gt;">
				<path id="&lt;Path&gt;" class="s3" d="m134.83 400.84l19.86-12.74-15.02-24.84-11.93 7.91"/>
			</g>
			<g id="&lt;Group&gt;">
				<path id="&lt;Path&gt;" class="s6" d="m133.89 238.1l9.42 0.63 11.53-6.42-12.94-2.29z"/>
			</g>
		</g>
		<g id="&lt;Group&gt;">
			<g id="&lt;Group&gt;">
				<path id="&lt;Path&gt;" class="s0" d="m185.74 126.5c-4.8-0.85-9.91 5.33-11.4 13.79-1.49 8.47 1.19 16.02 5.99 16.87l8.7 1.53 5.4-30.66z"/>
			</g>
			<g id="&lt;Group&gt;">
				<path id="&lt;Path&gt;" class="s2" d="m200.43 144.89c-1.5 8.47-6.6 14.65-11.4 13.8-4.81-0.85-7.49-8.4-6-16.86 1.5-8.47 6.6-14.65 11.4-13.8 4.81 0.85 7.49 8.4 6 16.86z"/>
			</g>
		</g>
		<g id="&lt;Group&gt;">
			<path id="&lt;Path&gt;" class="s0" d="m172.36 260.32l-4.02-2.81 6.04-8.63c3.93-5.61 2.56-13.36-3.05-17.29-5.61-3.93-13.37-2.56-17.29 3.05l-6.04 8.62-4.02-2.81 6.04-8.62c5.48-7.83 16.3-9.74 24.12-4.26 3.79 2.66 6.32 6.63 7.13 11.18 0.8 4.56-0.22 9.16-2.87 12.95z"/>
		</g>
		<g id="&lt;Group&gt;">
			<path id="&lt;Path&gt;" class="s1" d="m172.73 236.93c-1.46 0-2.92-0.43-4.21-1.33-3.32-2.33-4.13-6.91-1.8-10.24l29.45-42.06c7.88-11.26 5.14-26.84-6.12-34.72-3.33-2.33-4.14-6.91-1.81-10.24 2.33-3.32 6.91-4.13 10.24-1.81 8.67 6.08 14.46 15.16 16.3 25.59 1.84 10.42-0.5 20.94-6.57 29.61l-29.45 42.07c-1.43 2.04-3.71 3.13-6.03 3.13z"/>
		</g>
		<g id="&lt;Group&gt;">
			<path id="&lt;Path&gt;" class="s0" d="m176.19 229.58c0 1.91-1.55 3.45-3.45 3.45-1.91 0-3.46-1.54-3.46-3.45 0-1.91 1.55-3.45 3.46-3.45 1.9 0 3.45 1.54 3.45 3.45z"/>
		</g>
	</g>
</svg>