<svg version="1.2" xmlns="http://www.w3.org/2000/svg" viewBox="0 0 257 364" width="257" height="364">
	<style>
		.s0 { fill: #3e8e93 } 
		.s1 { fill: #3f1833 } 
		.s2 { fill: #5a3950 } 
		.s3 { fill: #4aabb1 } 
		.s4 { fill: #f9fafb } 
		.s5 { fill: #f1a20d } 
		.s6 { fill: #317276 } 
	</style>
	<g id="&lt;Group&gt;">
		<g id="&lt;Group&gt;">
			<path id="&lt;Path&gt;" class="s0" d="m91.76 339.91l9.74-8.8v-60.76l-9.74 5.4z"/>
		</g>
		<g id="&lt;Group&gt;">
			<path id="&lt;Path&gt;" class="s0" d="m113.08 229.28l-10.56 31.34-10.76-7.01 16.04-30.48z"/>
		</g>
		<g id="&lt;Group&gt;">
			<g id="&lt;Group&gt;">
				<path id="&lt;Path&gt;" class="s1" d="m59.51 264.68c0 6.11-2.78 11.07-6.21 11.07-3.43 0-6.21-4.96-6.21-11.07 0-6.11 2.78-11.07 6.21-11.07 3.43 0 6.21 4.96 6.21 11.07z"/>
			</g>
			<g id="&lt;Group&gt;">
				<path id="&lt;Path&gt;" class="s1" d="m96.74 275.75h-43.44v-22.14h43.44z"/>
			</g>
			<g id="&lt;Group&gt;">
				<path id="&lt;Path&gt;" class="s2" d="m102.96 264.68c0 6.11-2.78 11.07-6.22 11.07-3.43 0-6.21-4.96-6.21-11.07 0-6.11 2.78-11.07 6.21-11.07 3.44 0 6.22 4.96 6.22 11.07z"/>
			</g>
		</g>
		<g id="&lt;Group&gt;">
			<path id="&lt;Path&gt;" class="s3" d="m34.88 226.03h-4.9v-10.53c0-6.85-5.57-12.42-12.42-12.42-6.85 0-12.42 5.57-12.42 12.42v10.53h-4.9v-10.53c0-9.55 7.77-17.32 17.32-17.32 9.55 0 17.32 7.77 17.32 17.32z"/>
		</g>
		<g id="&lt;Group&gt;">
			<path id="&lt;Path&gt;" class="s3" d="m256.62 226.03h-4.9v-10.53c0-6.85-5.57-12.42-12.42-12.42-6.84 0-12.41 5.57-12.41 12.42v10.53h-4.9v-10.53c0-9.55 7.76-17.32 17.31-17.32 9.55 0 17.32 7.77 17.32 17.32z"/>
		</g>
		<g id="&lt;Group&gt;">
			<path id="&lt;Path&gt;" class="s1" d="m17.56 207.98c-4.06 0-7.35-3.29-7.35-7.35v-51.35c0-21.85 17.78-39.63 39.63-39.63 4.06 0 7.35 3.29 7.35 7.35 0 4.06-3.29 7.35-7.35 7.35-13.74 0-24.93 11.18-24.93 24.93v51.35c0 4.06-3.29 7.35-7.35 7.35z"/>
		</g>
		<g id="&lt;Group&gt;">
			<path id="&lt;Path&gt;" class="s1" d="m239.3 207.98c-4.06 0-7.35-3.29-7.35-7.35v-51.35c0-13.75-11.18-24.93-24.93-24.93-4.06 0-7.35-3.29-7.35-7.35 0-4.06 3.29-7.35 7.35-7.35 21.86 0 39.64 17.78 39.64 39.63v51.35c0 4.06-3.3 7.35-7.36 7.35z"/>
		</g>
		<g id="&lt;Group&gt;">
			<path id="&lt;Path&gt;" class="s3" d="m182.19 193.24h-107.52c-8.12 0-14.7-6.59-14.7-14.71v-76.45c0-8.12 6.58-14.7 14.7-14.7h107.52c8.12 0 14.7 6.58 14.7 14.7v76.45c0 8.12-6.58 14.71-14.7 14.71z"/>
		</g>
		<g id="&lt;Group&gt;">
			<path id="&lt;Path&gt;" class="s0" d="m74.67 183.43c-2.7 0-4.9-2.19-4.9-4.9v-76.45c0-2.7 2.2-4.9 4.9-4.9h107.52c2.7 0 4.9 2.2 4.9 4.9v76.45c0 2.71-2.2 4.9-4.9 4.9z"/>
		</g>
		<g id="&lt;Group&gt;">
			<path id="&lt;Path&gt;" class="s1" d="m201.83 213.04h-146.8c-2.7 0-4.9-2.19-4.9-4.9v-10c0-2.71 2.2-4.9 4.9-4.9h146.8c2.71 0 4.9 2.19 4.9 4.9v10c0 2.71-2.19 4.9-4.9 4.9z"/>
		</g>
		<g id="&lt;Group&gt;">
			<path id="&lt;Path&gt;" class="s3" d="m178.89 65.41h-100.92v-34.14c0-17.18 13.93-31.11 31.1-31.11h38.72c17.18 0 31.1 13.93 31.1 31.11z"/>
		</g>
		<g id="&lt;Group&gt;">
			<path id="&lt;Path&gt;" class="s0" d="m157.99 80.29h-59.11v-14.88h59.11z"/>
		</g>
		<g id="&lt;Group&gt;">
			<path id="&lt;Path&gt;" class="s4" d="m138.36 75.33h-19.86c-1.9-1.9-2.96-2.96-4.86-4.86v-5.06h29.59v5.06c-1.9 1.9-2.97 2.96-4.87 4.86z"/>
		</g>
		<g id="&lt;Group&gt;">
			<g id="&lt;Group&gt;">
				<path id="&lt;Path&gt;" class="s0" d="m165.57 38.68c0 8.19-6.64 14.83-14.83 14.83-8.2 0-14.84-6.64-14.84-14.83 0-8.2 6.64-14.84 14.84-14.84 8.19 0 14.83 6.64 14.83 14.84z"/>
			</g>
			<g id="&lt;Group&gt;">
				<path id="&lt;Path&gt;" class="s4" d="m161.93 38.68c0 6.18-5.01 11.19-11.19 11.19-6.18 0-11.2-5.01-11.2-11.19 0-6.18 5.02-11.2 11.2-11.2 6.18 0 11.19 5.02 11.19 11.2z"/>
			</g>
			<g id="&lt;Group&gt;">
				<path id="&lt;Path&gt;" class="s1" d="m156.52 38.68c0 3.19-2.59 5.78-5.78 5.78-3.19 0-5.78-2.59-5.78-5.78 0-3.19 2.59-5.78 5.78-5.78 3.19 0 5.78 2.59 5.78 5.78z"/>
			</g>
		</g>
		<g id="&lt;Group&gt;">
			<g id="&lt;Group&gt;">
				<path id="&lt;Path&gt;" class="s0" d="m91.29 38.68c0 8.19 6.64 14.83 14.84 14.83 8.19 0 14.83-6.64 14.83-14.83 0-8.2-6.64-14.84-14.83-14.84-8.2 0-14.84 6.64-14.84 14.84z"/>
			</g>
			<g id="&lt;Group&gt;">
				<path id="&lt;Path&gt;" class="s4" d="m94.93 38.68c0 6.18 5.01 11.19 11.2 11.19 6.18 0 11.19-5.01 11.19-11.19 0-6.18-5.01-11.2-11.19-11.2-6.19 0-11.2 5.02-11.2 11.2z"/>
			</g>
			<g id="&lt;Group&gt;">
				<path id="&lt;Path&gt;" class="s1" d="m100.35 38.68c0 3.19 2.58 5.78 5.78 5.78 3.19 0 5.78-2.59 5.78-5.78 0-3.19-2.59-5.78-5.78-5.78-3.2 0-5.78 2.59-5.78 5.78z"/>
			</g>
		</g>
		<g id="&lt;Group&gt;">
			<path id="&lt;Path&gt;" class="s1" d="m157.99 87.38h-59.11v-7.09h59.11z"/>
		</g>
		<g id="&lt;Group&gt;">
			<path id="&lt;Path&gt;" class="s1" d="m178.89 56.22v-24.21c3.69 0 6.68 2.99 6.68 6.68v10.86c0 3.69-2.99 6.67-6.68 6.67z"/>
		</g>
		<g id="&lt;Group&gt;">
			<path id="&lt;Path&gt;" class="s0" d="m207.02 128.53h-10.13v-24.22h10.13z"/>
		</g>
		<g id="&lt;Group&gt;">
			<path id="&lt;Path&gt;" class="s1" d="m77.97 56.22v-24.21c-3.68 0-6.67 2.99-6.67 6.68v10.86c0 3.69 2.99 6.67 6.67 6.67z"/>
		</g>
		<g id="&lt;Group&gt;">
			<path id="&lt;Path&gt;" class="s0" d="m107.8 223.13h-32.07l-5.29-10.09h42.64z"/>
		</g>
		<g id="&lt;Group&gt;">
			<path id="&lt;Path&gt;" class="s3" d="m91.76 253.61h-38.46l22.43-30.48h32.07z"/>
		</g>
		<g id="&lt;Group&gt;">
			<path id="&lt;Path&gt;" class="s1" d="m97.78 363.65h-55.19l9.38-23.74h39.79z"/>
		</g>
		<g id="&lt;Group&gt;">
			<path id="&lt;Path&gt;" class="s3" d="m91.76 339.91h-39.79v-64.16h39.79z"/>
		</g>
		<g id="&lt;Group&gt;">
			<path id="&lt;Path&gt;" class="s0" d="m49.84 128.53h10.13v-24.22h-10.13z"/>
		</g>
		<g id="&lt;Group&gt;">
			<path id="&lt;Path&gt;" class="s4" d="m96.83 171.51h-10.13v-10.12h10.13z"/>
		</g>
		<g id="&lt;Group&gt;">
			<path id="&lt;Path&gt;" class="s4" d="m110.9 171.51h-10.13v-10.12h10.13z"/>
		</g>
		<g id="&lt;Group&gt;">
			<path id="&lt;Path&gt;" class="s5" d="m124.98 171.51h-10.13v-10.12h10.13z"/>
		</g>
		<g id="&lt;Group&gt;">
			<path id="&lt;Path&gt;" class="s1" d="m139.05 171.51h-10.13v-10.12h10.13z"/>
		</g>
		<g id="&lt;Group&gt;">
			<path id="&lt;Path&gt;" class="s1" d="m175.68 106.89h-94.49v44.38h94.49z"/>
		</g>
		<g id="&lt;Group&gt;">
			<path id="&lt;Path&gt;" class="s5" d="m170.23 166.45c0 5.51-4.47 9.98-9.98 9.98-5.51 0-9.97-4.47-9.97-9.98 0-5.51 4.46-9.98 9.97-9.98 5.51 0 9.98 4.47 9.98 9.98z"/>
		</g>
		<g id="&lt;Group&gt;">
			<path id="&lt;Path&gt;" class="s3" d="m14.11 200.63c0-1.91 1.54-3.45 3.45-3.45 1.91 0 3.45 1.54 3.45 3.45 0 1.91-1.54 3.45-3.45 3.45-1.91 0-3.45-1.54-3.45-3.45z"/>
		</g>
		<g id="&lt;Group&gt;">
			<path id="&lt;Path&gt;" class="s3" d="m235.85 200.63c0-1.91 1.55-3.45 3.45-3.45 1.91 0 3.46 1.54 3.46 3.45 0 1.91-1.55 3.45-3.46 3.45-1.9 0-3.45-1.54-3.45-3.45z"/>
		</g>
		<g id="&lt;Group&gt;">
			<path id="&lt;Path&gt;" class="s6" d="m107.8 223.13l5.28 6.15 12.11-16.24h-12.11z"/>
		</g>
		<g id="&lt;Group&gt;">
			<path id="&lt;Path&gt;" class="s2" d="m97.78 363.65l17.79-16.27-14.07-16.27-9.74 8.8z"/>
		</g>
		<g id="&lt;Group&gt;">
			<path id="&lt;Path&gt;" class="s0" d="m165.1 339.91l-9.73-8.8v-60.76l9.73 5.4z"/>
		</g>
		<g id="&lt;Group&gt;">
			<path id="&lt;Path&gt;" class="s0" d="m143.78 229.28l10.57 31.34 10.75-7.01-16.03-30.48z"/>
		</g>
		<g id="&lt;Group&gt;">
			<g id="&lt;Group&gt;">
				<path id="&lt;Path&gt;" class="s1" d="m197.35 264.68c0 6.11 2.78 11.07 6.21 11.07 3.43 0 6.22-4.96 6.22-11.07 0-6.11-2.79-11.07-6.22-11.07-3.43 0-6.21 4.96-6.21 11.07z"/>
			</g>
			<g id="&lt;Group&gt;">
				<path id="&lt;Path&gt;" class="s1" d="m160.12 275.75h43.44v-22.14h-43.44z"/>
			</g>
			<g id="&lt;Group&gt;">
				<path id="&lt;Path&gt;" class="s2" d="m153.91 264.68c0 6.11 2.78 11.07 6.21 11.07 3.43 0 6.21-4.96 6.21-11.07 0-6.11-2.78-11.07-6.21-11.07-3.43 0-6.21 4.96-6.21 11.07z"/>
			</g>
		</g>
		<g id="&lt;Group&gt;">
			<path id="&lt;Path&gt;" class="s0" d="m149.07 223.13h32.07l5.28-10.09h-42.64z"/>
		</g>
		<g id="&lt;Group&gt;">
			<path id="&lt;Path&gt;" class="s3" d="m165.1 253.61h38.46l-22.42-30.48h-32.07z"/>
		</g>
		<g id="&lt;Group&gt;">
			<path id="&lt;Path&gt;" class="s1" d="m159.09 363.65h55.19l-9.38-23.74h-39.8z"/>
		</g>
		<g id="&lt;Group&gt;">
			<path id="&lt;Path&gt;" class="s3" d="m165.1 339.91h39.8v-64.16h-39.8z"/>
		</g>
		<g id="&lt;Group&gt;">
			<path id="&lt;Path&gt;" class="s6" d="m149.07 223.13l-5.29 6.15-12.1-16.24h12.1z"/>
		</g>
		<g id="&lt;Group&gt;">
			<path id="&lt;Path&gt;" class="s2" d="m159.09 363.65l-17.8-16.27 14.08-16.27 9.73 8.8z"/>
		</g>
	</g>
</svg>