<svg width="427" height="425" viewBox="0 0 427 425" fill="none" xmlns="http://www.w3.org/2000/svg">
<path d="M257.18 225.365L256.071 298.999L256.237 297.89C255.517 368.033 198.427 424.651 128.119 424.651C57.81 424.651 0.74826 368.033 0 297.89C0 297.447 0 296.976 0 296.505V0H88.4886V288.523C88.6826 310.445 106.752 328.347 128.59 328.347C150.428 328.347 168.331 310.638 168.691 288.828V225.337H257.18V225.365Z" fill="#E7BC09"/>
<path d="M168.886 199.314L169.994 125.68L169.828 126.788C170.549 56.6457 227.638 0.0273438 297.947 0.0273438C368.255 0.0273438 425.317 56.6457 426.065 126.788C426.065 127.232 426.065 127.703 426.065 128.174V308.255H337.577V136.127C337.383 114.206 319.314 96.3035 297.476 96.3035C275.637 96.3035 257.735 114.012 257.374 135.823V199.314H168.886Z" fill="#E7BC09"/>
<path d="M381.115 424.652C405.849 424.652 425.9 404.601 425.9 379.867C425.9 355.133 405.849 335.083 381.115 335.083C356.381 335.083 336.33 355.133 336.33 379.867C336.33 404.601 356.381 424.652 381.115 424.652Z" fill="#E7BC09"/>
</svg>
