<svg width="2512" height="425" viewBox="0 0 2512 425" fill="none" xmlns="http://www.w3.org/2000/svg">
<path d="M257.18 225.365L256.071 298.999L256.237 297.89C255.517 368.033 198.427 424.651 128.119 424.651C57.81 424.651 0.74826 368.033 0 297.89C0 297.447 0 296.976 0 296.505V0H88.4886V288.523C88.6826 310.445 106.752 328.347 128.59 328.347C150.428 328.347 168.331 310.638 168.691 288.828V225.337H257.18V225.365Z" fill="#E7BC09"/>
<path d="M168.886 199.314L169.994 125.68L169.828 126.788C170.549 56.6457 227.638 0.0273438 297.947 0.0273438C368.255 0.0273438 425.317 56.6457 426.065 126.788C426.065 127.232 426.065 127.703 426.065 128.174V308.255H337.577V136.127C337.383 114.206 319.314 96.3035 297.476 96.3035C275.637 96.3035 257.735 114.012 257.374 135.823V199.314H168.886Z" fill="#E7BC09"/>
<path d="M381.115 424.652C405.849 424.652 425.9 404.601 425.9 379.867C425.9 355.133 405.849 335.083 381.115 335.083C356.381 335.083 336.33 355.133 336.33 379.867C336.33 404.601 356.381 424.652 381.115 424.652Z" fill="#E7BC09"/>
<path d="M721.238 249.393V50.3833H789.994V249.393C789.994 283.813 784.646 310.611 773.948 329.789C754.023 364.929 716.028 382.5 659.964 382.5C603.899 382.5 565.821 364.929 545.757 329.789C535.06 310.611 529.711 283.813 529.711 249.393V50.3833H598.468V249.393C598.468 271.646 601.1 287.914 606.366 298.14C614.569 316.293 632.416 325.382 659.964 325.382C687.511 325.382 705.136 316.293 713.339 298.14C718.605 287.886 721.238 271.646 721.238 249.393Z" fill="black"/>
<path d="M944.19 181.079C922.962 181.079 908.385 190.086 900.486 208.1C896.385 217.633 894.334 229.772 894.334 244.571V374.158H831.951V135.186H892.339V170.105C900.403 157.8 907.997 148.96 915.174 143.528C928.061 133.856 944.384 129.034 964.144 129.034C988.892 129.034 1009.12 135.519 1024.86 148.461C1040.6 161.431 1048.48 182.908 1048.48 212.922V374.13H984.347V228.497C984.347 215.915 982.656 206.243 979.303 199.509C973.151 187.204 961.428 181.052 944.162 181.052L944.19 181.079Z" fill="black"/>
<path d="M1152.65 134.715V374.13H1089.19V134.715H1152.65ZM1153.26 79.3161C1153.26 97.1635 1138.79 111.657 1120.92 111.657C1103.04 111.657 1088.58 97.1912 1088.58 79.3161C1088.58 61.441 1103.04 46.9746 1120.92 46.9746C1138.79 46.9746 1153.26 61.441 1153.26 79.3161Z" fill="black"/>
<path d="M1435.58 50.3833V107.722H1338.72V374.158H1270.63V107.722H1173.33V50.3833H1435.58Z" fill="black"/>
<path d="M1547.82 192.497C1522.62 192.497 1505.72 200.7 1497.07 217.107C1492.25 226.335 1489.81 240.524 1489.81 259.73V374.158H1426.76V134.743H1486.51V176.479C1496.19 160.516 1504.61 149.597 1511.76 143.749C1523.48 133.939 1538.7 129.034 1557.46 129.034C1558.62 129.034 1559.62 129.061 1560.43 129.145C1561.23 129.228 1563.03 129.339 1565.8 129.477V193.606C1561.84 193.162 1558.35 192.885 1555.27 192.719C1552.2 192.58 1549.7 192.497 1547.82 192.497Z" fill="black"/>
<path d="M1593.52 160.655C1610.06 139.565 1638.47 129.034 1678.73 129.034C1704.95 129.034 1728.23 134.244 1748.57 144.636C1768.91 155.029 1779.11 174.65 1779.11 203.499V313.327C1779.11 320.948 1779.25 330.177 1779.56 341.013C1780 349.216 1781.25 354.786 1783.3 357.696C1785.35 360.634 1788.42 363.045 1792.53 364.957V374.186H1724.43C1722.52 369.364 1721.22 364.819 1720.47 360.578C1719.75 356.338 1719.14 351.489 1718.72 346.084C1710.08 355.452 1700.13 363.433 1688.85 370.029C1675.38 377.788 1660.14 381.668 1643.15 381.668C1621.48 381.668 1603.58 375.488 1589.44 363.1C1575.31 350.74 1568.24 333.198 1568.24 310.5C1568.24 281.069 1579.58 259.757 1602.3 246.594C1614.74 239.416 1633.06 234.289 1657.2 231.213L1678.51 228.58C1690.07 227.111 1698.36 225.282 1703.34 223.093C1712.27 219.296 1716.73 213.365 1716.73 205.301C1716.73 195.49 1713.32 188.728 1706.53 184.987C1699.74 181.246 1689.74 179.389 1676.54 179.389C1661.75 179.389 1651.3 183.047 1645.15 190.363C1640.77 195.795 1637.83 203.111 1636.36 212.312H1575.97C1577.3 191.389 1583.15 174.179 1593.54 160.71L1593.52 160.655ZM1640.1 328.902C1645.95 333.724 1653.13 336.163 1661.64 336.163C1675.1 336.163 1687.52 332.2 1698.85 324.302C1710.19 316.403 1716.09 301.965 1716.54 281.041V257.762C1712.57 260.256 1708.58 262.252 1704.56 263.804C1700.54 265.328 1695 266.769 1687.99 268.071L1673.94 270.704C1660.75 273.06 1651.33 275.914 1645.62 279.268C1635.94 284.977 1631.12 293.845 1631.12 305.845C1631.12 316.542 1634.12 324.219 1640.13 328.902H1640.1Z" fill="black"/>
<path d="M2023.82 220.598H1959.69C1958.53 211.675 1955.5 203.61 1950.68 196.433C1943.64 186.761 1932.75 181.938 1917.95 181.938C1896.86 181.938 1882.45 192.414 1874.69 213.338C1870.59 224.478 1868.54 239.25 1868.54 257.707C1868.54 276.164 1870.59 289.411 1874.69 300.108C1882.17 320.034 1896.23 329.983 1916.87 329.983C1931.5 329.983 1941.9 326.02 1948.05 318.122C1954.2 310.223 1957.94 299.969 1959.25 287.36H2023.15C2021.68 306.399 2014.81 324.413 2002.51 341.401C1982.89 368.782 1953.81 382.472 1915.32 382.472C1876.83 382.472 1848.48 371.054 1830.32 348.218C1812.17 325.382 1803.08 295.729 1803.08 259.259C1803.08 218.104 1813.11 186.123 1833.18 163.287C1853.24 140.452 1880.9 129.034 1916.21 129.034C1946.22 129.034 1970.8 135.768 1989.9 149.237C2009.02 162.705 2020.33 186.511 2023.85 220.626L2023.82 220.598Z" fill="black"/>
<path d="M2268.53 374.131H2192.98L2135.64 271.786L2109.73 298.806V374.131H2048.24V51.4648H2109.73V225.865L2187.72 135.824H2265.26L2181.57 227.417L2268.53 374.131Z" fill="black"/>
<path d="M2480.7 165.034C2500.9 190.364 2511.02 220.322 2511.02 254.881C2511.02 289.439 2500.9 320.09 2480.7 345.032C2460.5 370.002 2429.82 382.473 2388.66 382.473C2347.51 382.473 2316.83 370.002 2296.63 345.032C2276.43 320.062 2266.31 290.021 2266.31 254.881C2266.31 219.74 2276.43 190.392 2296.63 165.034C2316.83 139.704 2347.51 127.039 2388.66 127.039C2429.82 127.039 2460.5 139.704 2480.7 165.034ZM2388.47 179.972C2370.15 179.972 2356.07 186.456 2346.18 199.399C2336.29 212.368 2331.35 230.853 2331.35 254.853C2331.35 278.853 2336.29 297.393 2346.18 310.418C2356.07 323.443 2370.15 329.956 2388.47 329.956C2406.79 329.956 2420.84 323.443 2430.65 310.418C2440.46 297.393 2445.37 278.88 2445.37 254.853C2445.37 230.826 2440.46 212.341 2430.65 199.399C2420.84 186.429 2406.79 179.972 2388.47 179.972Z" fill="black"/>
</svg>
