<?xml version="1.0" encoding="UTF-8"?>
<svg xmlns="http://www.w3.org/2000/svg" viewBox="0 0 1080 1080">
  <defs>
    <style>
      .cls-1 {
        fill: #f6e6bb;
      }

      .cls-2 {
        fill: #b3a0cd;
      }
    </style>
  </defs>
  <g id="Layer_44" data-name="Layer 44">
    <rect class="cls-1" x="-20.13" y="-30.14" width="1120.27" height="1140.27"/>
  </g>
  <g id="Layer_79" data-name="Layer 79">
    <g>
      <g>
        <g>
          <path class="cls-2" d="M179.78,539.14l-.4,26.57.06-.4c-.26,25.31-20.86,45.74-46.23,45.74s-45.96-20.43-46.23-45.74c0-.16,0-.33,0-.5v-106.99h31.93v104.11c.07,7.91,6.59,14.37,14.47,14.37s14.34-6.39,14.47-14.26v-22.91h31.93Z"/>
          <path class="cls-2" d="M147.92,529.74l.4-26.57-.06.4c.26-25.31,20.86-45.74,46.23-45.74s45.96,20.43,46.23,45.74c0,.16,0,.33,0,.5v64.98h-31.93v-62.11c-.07-7.91-6.59-14.37-14.47-14.37s-14.34,6.39-14.47,14.26v22.91h-31.93Z"/>
        </g>
        <circle class="cls-2" cx="224.5" cy="594.89" r="16.16"/>
      </g>
      <g>
        <path d="M347.23,547.81v-71.81h24.81v71.81c0,12.42-1.93,22.09-5.79,29.01-7.19,12.68-20.9,19.02-41.13,19.02s-33.97-6.34-41.21-19.02c-3.86-6.92-5.79-16.59-5.79-29.01v-71.81h24.81v71.81c0,8.03.95,13.9,2.85,17.59,2.96,6.55,9.4,9.83,19.34,9.83s16.3-3.28,19.26-9.83c1.9-3.7,2.85-9.56,2.85-17.59Z"/>
        <path d="M427.68,523.16c-7.66,0-12.92,3.25-15.77,9.75-1.48,3.44-2.22,7.82-2.22,13.16v46.76h-22.51v-86.23h21.79v12.6c2.91-4.44,5.65-7.63,8.24-9.59,4.65-3.49,10.54-5.23,17.67-5.23,8.93,0,16.23,2.34,21.91,7.01,5.68,4.68,8.52,12.43,8.52,23.26v58.17h-23.14v-52.55c0-4.54-.61-8.03-1.82-10.46-2.22-4.44-6.45-6.66-12.68-6.66Z"/>
        <path d="M502.9,506.43v86.39h-22.9v-86.39h22.9ZM503.12,486.44c0,6.44-5.22,11.67-11.67,11.67s-11.67-5.22-11.67-11.67,5.22-11.67,11.67-11.67,11.67,5.22,11.67,11.67Z"/>
        <path d="M604.99,476v20.69h-34.95v96.14h-24.57v-96.14h-35.11v-20.69h94.63Z"/>
        <path d="M645.49,527.28c-9.09,0-15.19,2.96-18.31,8.88-1.74,3.33-2.62,8.45-2.62,15.38v41.29h-22.75v-86.39h21.56v15.06c3.49-5.76,6.53-9.7,9.11-11.81,4.23-3.54,9.72-5.31,16.49-5.31.42,0,.78.01,1.07.04.29.03.94.07,1.94.12v23.14c-1.43-.16-2.69-.26-3.8-.32-1.11-.05-2.01-.08-2.69-.08Z"/>
        <path d="M661.98,515.79c5.97-7.61,16.22-11.41,30.75-11.41,9.46,0,17.86,1.88,25.2,5.63,7.34,3.75,11.02,10.83,11.02,21.24v39.63c0,2.75.05,6.08.16,9.99.16,2.96.61,4.97,1.35,6.02.74,1.06,1.85,1.93,3.33,2.62v3.33h-24.57c-.69-1.74-1.16-3.38-1.43-4.91-.26-1.53-.48-3.28-.63-5.23-3.12,3.38-6.71,6.26-10.78,8.64-4.86,2.8-10.36,4.2-16.49,4.2-7.82,0-14.28-2.23-19.38-6.7-5.1-4.46-7.65-10.79-7.65-18.98,0-10.62,4.09-18.31,12.29-23.06,4.49-2.59,11.1-4.44,19.81-5.55l7.69-.95c4.17-.53,7.16-1.19,8.96-1.98,3.22-1.37,4.83-3.51,4.83-6.42,0-3.54-1.23-5.98-3.68-7.33s-6.06-2.02-10.82-2.02c-5.34,0-9.11,1.32-11.33,3.96-1.58,1.96-2.64,4.6-3.17,7.92h-21.79c.48-7.55,2.59-13.76,6.34-18.62ZM678.79,576.5c2.11,1.74,4.7,2.62,7.77,2.62,4.86,0,9.34-1.43,13.43-4.28,4.09-2.85,6.22-8.06,6.38-15.61v-8.4c-1.43.9-2.87,1.62-4.32,2.18-1.45.55-3.45,1.07-5.98,1.54l-5.07.95c-4.76.85-8.16,1.88-10.22,3.09-3.49,2.06-5.23,5.26-5.23,9.59,0,3.86,1.08,6.63,3.25,8.32Z"/>
        <path d="M817.25,537.42h-23.14c-.42-3.22-1.51-6.13-3.25-8.72-2.54-3.49-6.47-5.23-11.81-5.23-7.61,0-12.81,3.78-15.61,11.33-1.48,4.02-2.22,9.35-2.22,16.01s.74,11.44,2.22,15.3c2.7,7.19,7.77,10.78,15.22,10.78,5.28,0,9.03-1.43,11.25-4.28,2.22-2.85,3.57-6.55,4.04-11.1h23.06c-.53,6.87-3.01,13.37-7.45,19.5-7.08,9.88-17.57,14.82-31.46,14.82s-24.12-4.12-30.67-12.36c-6.55-8.24-9.83-18.94-9.83-32.1,0-14.85,3.62-26.39,10.86-34.63,7.24-8.24,17.22-12.36,29.96-12.36,10.83,0,19.7,2.43,26.59,7.29,6.9,4.86,10.98,13.45,12.25,25.76Z"/>
        <path d="M905.55,592.82h-27.26l-20.69-36.93-9.35,9.75v27.18h-22.19v-116.43h22.19v62.93l28.14-32.49h27.98l-30.2,33.05,31.38,52.94Z"/>
        <path d="M982.11,517.37c7.29,9.14,10.94,19.95,10.94,32.42s-3.65,23.53-10.94,32.53c-7.29,9.01-18.36,13.51-33.21,13.51s-25.92-4.5-33.21-13.51c-7.29-9.01-10.94-19.85-10.94-32.53s3.65-23.27,10.94-32.42c7.29-9.14,18.36-13.71,33.21-13.71s25.92,4.57,33.21,13.71ZM948.83,522.76c-6.61,0-11.69,2.34-15.26,7.01-3.57,4.68-5.35,11.35-5.35,20.01s1.78,15.35,5.35,20.05c3.57,4.7,8.65,7.05,15.26,7.05s11.68-2.35,15.22-7.05c3.54-4.7,5.31-11.38,5.31-20.05s-1.77-15.34-5.31-20.01c-3.54-4.68-8.61-7.01-15.22-7.01Z"/>
      </g>
    </g>
  </g>
</svg>