<?xml version="1.0" encoding="UTF-8"?>
<svg xmlns="http://www.w3.org/2000/svg" viewBox="0 0 1080 1080">
  <defs>
    <style>
      .cls-1 {
        fill: #f6e6bb;
      }

      .cls-2 {
        fill: #b39ecc;
      }
    </style>
  </defs>
  <g id="Layer_72" data-name="Layer 72">
    <rect class="cls-1" x="-30.14" y="-30.14" width="1120.27" height="1130.27"/>
  </g>
  <g id="Layer_48" data-name="Layer 48">
    <g>
      <g>
        <path class="cls-2" d="M580.29,589.37l-1.01,67.05.15-1.01c-.66,63.87-52.64,115.43-116.67,115.43s-116-51.55-116.67-115.43c-.02-.41-.02-.84-.02-1.26v-270h80.59v262.75c.17,19.96,16.63,36.27,36.52,36.27s36.2-16.13,36.51-35.99v-57.81h80.59Z"/>
        <path class="cls-2" d="M499.9,565.63l1.01-67.05-.15,1.01c.66-63.87,52.64-115.43,116.67-115.43s116,51.55,116.67,115.43c.02.41.02.84.02,1.26v164h-80.59v-156.75c-.17-19.96-16.63-36.27-36.52-36.27s-36.2,16.13-36.51,35.99v57.81h-80.59Z"/>
      </g>
      <circle class="cls-2" cx="693.14" cy="730.07" r="40.77"/>
    </g>
  </g>
</svg>