<?xml version="1.0" encoding="UTF-8"?>
<svg id="Layer_77" data-name="Layer 77" xmlns="http://www.w3.org/2000/svg" viewBox="0 0 1080 1080">
  <defs>
    <style>
      .cls-1 {
        fill: #f58b79;
      }
    </style>
  </defs>
  <path class="cls-1" d="M202.71,555.91v-83.89h28.98v83.89c0,14.51-2.25,25.8-6.76,33.89-8.39,14.81-24.41,22.22-48.05,22.22s-39.69-7.41-48.15-22.22c-4.51-8.09-6.76-19.38-6.76-33.89v-83.89h28.98v83.89c0,9.38,1.11,16.23,3.33,20.55,3.46,7.65,10.99,11.48,22.59,11.48s19.04-3.83,22.5-11.48c2.22-4.32,3.33-11.17,3.33-20.55Z"/>
  <path class="cls-1" d="M296.69,527.11c-8.95,0-15.09,3.8-18.42,11.39-1.73,4.01-2.59,9.14-2.59,15.37v54.63h-26.3v-100.74h25.46v14.72c3.39-5.19,6.6-8.92,9.63-11.2,5.43-4.07,12.31-6.11,20.65-6.11,10.43,0,18.96,2.73,25.6,8.19,6.63,5.46,9.95,14.52,9.95,27.17v67.96h-27.04v-61.39c0-5.31-.71-9.38-2.13-12.22-2.59-5.19-7.53-7.78-14.82-7.78Z"/>
  <path class="cls-1" d="M384.56,507.58v100.92h-26.76v-100.92h26.76ZM384.82,484.22c0,7.53-6.1,13.63-13.63,13.63s-13.63-6.1-13.63-13.63,6.1-13.63,13.63-13.63,13.63,6.1,13.63,13.63Z"/>
  <path class="cls-1" d="M503.82,472.02v24.17h-40.83v112.31h-28.7v-112.31h-41.02v-24.17h110.55Z"/>
  <path class="cls-1" d="M551.14,531.93c-10.62,0-17.75,3.46-21.39,10.37-2.04,3.89-3.06,9.88-3.06,17.96v48.24h-26.57v-100.92h25.18v17.59c4.07-6.73,7.62-11.33,10.65-13.8,4.94-4.13,11.36-6.2,19.26-6.2.49,0,.91.02,1.25.05.34.03,1.09.08,2.27.14v27.04c-1.67-.18-3.15-.31-4.44-.37-1.3-.06-2.35-.09-3.15-.09Z"/>
  <path class="cls-1" d="M570.41,518.5c6.98-8.89,18.95-13.33,35.92-13.33,11.05,0,20.86,2.19,29.44,6.57,8.58,4.38,12.87,12.65,12.87,24.81v46.29c0,3.21.06,7.1.18,11.67.19,3.46.71,5.8,1.57,7.04.86,1.24,2.16,2.25,3.89,3.06v3.89h-28.7c-.8-2.04-1.36-3.95-1.67-5.74-.31-1.79-.56-3.83-.74-6.11-3.64,3.95-7.84,7.31-12.59,10.09-5.68,3.27-12.1,4.91-19.26,4.91-9.14,0-16.68-2.61-22.64-7.82-5.96-5.22-8.94-12.61-8.94-22.18,0-12.41,4.78-21.39,14.35-26.94,5.25-3.02,12.96-5.19,23.15-6.48l8.98-1.11c4.88-.62,8.36-1.39,10.46-2.31,3.76-1.6,5.65-4.1,5.65-7.5,0-4.13-1.43-6.99-4.3-8.56-2.87-1.57-7.08-2.36-12.64-2.36-6.24,0-10.65,1.54-13.24,4.63-1.85,2.28-3.09,5.37-3.7,9.26h-25.46c.56-8.83,3.02-16.08,7.41-21.76ZM590.04,589.43c2.47,2.04,5.49,3.06,9.07,3.06,5.68,0,10.91-1.67,15.69-5,4.78-3.33,7.27-9.41,7.45-18.24v-9.81c-1.67,1.05-3.35,1.9-5.05,2.55-1.7.65-4.03,1.25-6.99,1.8l-5.93,1.11c-5.56.99-9.54,2.19-11.94,3.61-4.07,2.41-6.11,6.14-6.11,11.2,0,4.51,1.27,7.75,3.8,9.72Z"/>
  <path class="cls-1" d="M751.8,543.78h-27.04c-.5-3.76-1.76-7.16-3.8-10.18-2.96-4.07-7.56-6.11-13.8-6.11-8.89,0-14.97,4.41-18.24,13.24-1.73,4.69-2.59,10.93-2.59,18.7s.86,13.36,2.59,17.87c3.15,8.4,9.07,12.59,17.78,12.59,6.17,0,10.55-1.67,13.15-5,2.59-3.33,4.17-7.65,4.72-12.96h26.94c-.62,8.02-3.52,15.62-8.7,22.78-8.27,11.54-20.52,17.31-36.76,17.31s-28.18-4.81-35.83-14.44c-7.66-9.63-11.48-22.13-11.48-37.5,0-17.34,4.23-30.83,12.69-40.46,8.46-9.63,20.12-14.44,35-14.44,12.65,0,23.01,2.84,31.06,8.52,8.06,5.68,12.82,15.71,14.31,30.09Z"/>
  <path class="cls-1" d="M854.95,608.5h-31.85l-24.17-43.15-10.93,11.39v31.76h-25.92v-136.01h25.92v73.52l32.87-37.96h32.68l-35.28,38.61,36.66,61.85Z"/>
  <path class="cls-1" d="M944.39,520.35c8.52,10.68,12.78,23.3,12.78,37.87s-4.26,27.48-12.78,38.01c-8.52,10.52-21.45,15.79-38.79,15.79s-30.28-5.26-38.79-15.79c-8.52-10.52-12.78-23.19-12.78-38.01s4.26-27.19,12.78-37.87c8.52-10.68,21.45-16.02,38.79-16.02s30.28,5.34,38.79,16.02ZM905.51,526.65c-7.72,0-13.66,2.73-17.82,8.19-4.17,5.46-6.25,13.26-6.25,23.38s2.08,17.93,6.25,23.42c4.17,5.5,10.11,8.24,17.82,8.24s13.64-2.74,17.78-8.24c4.13-5.49,6.2-13.3,6.2-23.42s-2.07-17.92-6.2-23.38c-4.14-5.46-10.06-8.19-17.78-8.19Z"/>
</svg>