<svg xmlns="http://www.w3.org/2000/svg" xmlns:xlink="http://www.w3.org/1999/xlink" width="1080" zoomAndPan="magnify" viewBox="0 0 810 269.999989" height="360" preserveAspectRatio="xMidYMid meet" version="1.0"><path fill="#ffea9a" d="M 99.632812 142.316406 L 99.292969 164.882812 L 99.34375 164.542969 C 99.121094 186.039062 81.625 203.390625 60.078125 203.390625 C 38.53125 203.390625 21.046875 186.039062 20.816406 164.542969 C 20.816406 164.40625 20.816406 164.261719 20.816406 164.117188 L 20.816406 73.25 L 47.933594 73.25 L 47.933594 161.671875 C 47.996094 168.390625 53.53125 173.875 60.222656 173.875 C 66.917969 173.875 72.402344 168.449219 72.515625 161.765625 L 72.515625 142.308594 L 99.632812 142.308594 Z M 99.632812 142.316406 " fill-opacity="1" fill-rule="nonzero"/><path fill="#ffea9a" d="M 72.574219 134.332031 L 72.914062 111.765625 L 72.863281 112.105469 C 73.082031 90.609375 90.578125 73.257812 112.125 73.257812 C 133.671875 73.257812 151.160156 90.609375 151.390625 112.105469 C 151.390625 112.242188 151.390625 112.386719 151.390625 112.53125 L 151.390625 167.71875 L 124.269531 167.71875 L 124.269531 114.96875 C 124.210938 108.25 118.671875 102.761719 111.980469 102.761719 C 105.289062 102.761719 99.800781 108.191406 99.691406 114.875 L 99.691406 134.332031 Z M 72.574219 134.332031 " fill-opacity="1" fill-rule="nonzero"/><path fill="#ffea9a" d="M 151.339844 189.664062 C 151.339844 190.566406 151.25 191.457031 151.074219 192.34375 C 150.898438 193.226562 150.636719 194.082031 150.292969 194.917969 C 149.949219 195.75 149.527344 196.539062 149.023438 197.289062 C 148.523438 198.039062 147.957031 198.730469 147.316406 199.371094 C 146.679688 200.007812 145.988281 200.574219 145.238281 201.074219 C 144.488281 201.578125 143.699219 202 142.867188 202.34375 C 142.03125 202.6875 141.175781 202.949219 140.289062 203.125 C 139.40625 203.300781 138.515625 203.390625 137.613281 203.390625 C 136.710938 203.390625 135.820312 203.300781 134.9375 203.125 C 134.050781 202.949219 133.195312 202.6875 132.359375 202.34375 C 131.527344 202 130.738281 201.578125 129.988281 201.074219 C 129.238281 200.574219 128.546875 200.007812 127.910156 199.371094 C 127.269531 198.730469 126.703125 198.039062 126.203125 197.289062 C 125.699219 196.539062 125.277344 195.75 124.933594 194.917969 C 124.589844 194.082031 124.328125 193.226562 124.152344 192.34375 C 123.976562 191.457031 123.886719 190.566406 123.886719 189.664062 C 123.886719 188.761719 123.976562 187.871094 124.152344 186.988281 C 124.328125 186.101562 124.589844 185.246094 124.933594 184.410156 C 125.277344 183.578125 125.699219 182.789062 126.203125 182.039062 C 126.703125 181.289062 127.269531 180.597656 127.910156 179.960938 C 128.546875 179.320312 129.238281 178.753906 129.988281 178.253906 C 130.738281 177.75 131.527344 177.328125 132.359375 176.984375 C 133.195312 176.640625 134.050781 176.378906 134.9375 176.203125 C 135.820312 176.027344 136.710938 175.941406 137.613281 175.941406 C 138.515625 175.941406 139.40625 176.027344 140.289062 176.203125 C 141.175781 176.378906 142.03125 176.640625 142.867188 176.984375 C 143.699219 177.328125 144.488281 177.75 145.238281 178.253906 C 145.988281 178.753906 146.679688 179.320312 147.316406 179.960938 C 147.957031 180.597656 148.523438 181.289062 149.023438 182.039062 C 149.527344 182.789062 149.949219 183.578125 150.292969 184.410156 C 150.636719 185.246094 150.898438 186.101562 151.074219 186.988281 C 151.25 187.871094 151.339844 188.761719 151.339844 189.664062 Z M 151.339844 189.664062 " fill-opacity="1" fill-rule="nonzero"/><path fill="#231f20" d="M 241.847656 149.679688 L 241.847656 88.691406 L 262.917969 88.691406 L 262.917969 149.679688 C 262.917969 160.226562 261.28125 168.441406 258.003906 174.316406 C 251.894531 185.085938 240.25 190.472656 223.070312 190.472656 C 205.890625 190.472656 194.21875 185.085938 188.070312 174.316406 C 184.792969 168.441406 183.152344 160.226562 183.152344 149.679688 L 183.152344 88.691406 L 204.222656 88.691406 L 204.222656 149.679688 C 204.222656 156.5 205.03125 161.484375 206.644531 164.617188 C 209.160156 170.179688 214.628906 172.96875 223.070312 172.96875 C 231.511719 172.96875 236.914062 170.179688 239.429688 164.617188 C 241.042969 161.476562 241.847656 156.5 241.847656 149.679688 Z M 241.847656 149.679688 " fill-opacity="1" fill-rule="nonzero"/><path fill="#231f20" d="M 310.175781 128.742188 C 303.667969 128.742188 299.203125 131.503906 296.78125 137.023438 C 295.523438 139.945312 294.894531 143.664062 294.894531 148.199219 L 294.894531 187.914062 L 275.777344 187.914062 L 275.777344 114.679688 L 294.285156 114.679688 L 294.285156 125.378906 C 296.757812 121.609375 299.082031 118.898438 301.28125 117.234375 C 305.230469 114.269531 310.234375 112.792969 316.289062 112.792969 C 323.875 112.792969 330.074219 114.78125 334.898438 118.746094 C 339.722656 122.722656 342.132812 129.304688 342.132812 138.503906 L 342.132812 187.90625 L 322.480469 187.90625 L 322.480469 143.273438 C 322.480469 139.417969 321.964844 136.457031 320.9375 134.390625 C 319.050781 130.621094 315.457031 128.734375 310.167969 128.734375 Z M 310.175781 128.742188 " fill-opacity="1" fill-rule="nonzero"/><path fill="#231f20" d="M 374.058594 114.535156 L 374.058594 187.90625 L 354.609375 187.90625 L 354.609375 114.535156 Z M 374.246094 97.558594 C 374.246094 103.027344 369.8125 107.46875 364.335938 107.46875 C 358.855469 107.46875 354.425781 103.035156 354.425781 97.558594 C 354.425781 92.078125 358.855469 87.644531 364.335938 87.644531 C 369.8125 87.644531 374.246094 92.078125 374.246094 97.558594 Z M 374.246094 97.558594 " fill-opacity="1" fill-rule="nonzero"/><path fill="#231f20" d="M 460.765625 88.691406 L 460.765625 106.261719 L 431.082031 106.261719 L 431.082031 187.914062 L 410.214844 187.914062 L 410.214844 106.261719 L 380.394531 106.261719 L 380.394531 88.691406 Z M 460.765625 88.691406 " fill-opacity="1" fill-rule="nonzero"/><path fill="#231f20" d="M 495.164062 132.242188 C 487.441406 132.242188 482.261719 134.757812 479.613281 139.785156 C 478.132812 142.613281 477.386719 146.960938 477.386719 152.847656 L 477.386719 187.914062 L 458.066406 187.914062 L 458.066406 114.542969 L 476.375 114.542969 L 476.375 127.332031 C 479.339844 122.441406 481.921875 119.09375 484.113281 117.304688 C 487.707031 114.296875 492.367188 112.792969 498.117188 112.792969 C 498.472656 112.792969 498.78125 112.800781 499.027344 112.828125 C 499.273438 112.851562 499.824219 112.886719 500.675781 112.929688 L 500.675781 132.582031 C 499.460938 132.445312 498.390625 132.363281 497.445312 132.3125 C 496.503906 132.269531 495.738281 132.242188 495.164062 132.242188 Z M 495.164062 132.242188 " fill-opacity="1" fill-rule="nonzero"/><path fill="#231f20" d="M 509.167969 122.484375 C 514.238281 116.019531 522.941406 112.792969 535.285156 112.792969 C 543.316406 112.792969 550.453125 114.390625 556.6875 117.574219 C 562.921875 120.761719 566.046875 126.773438 566.046875 135.613281 L 566.046875 169.273438 C 566.046875 171.609375 566.085938 174.4375 566.179688 177.757812 C 566.316406 180.269531 566.699219 181.976562 567.328125 182.871094 C 567.957031 183.769531 568.898438 184.507812 570.15625 185.09375 L 570.15625 187.921875 L 549.289062 187.921875 C 548.703125 186.445312 548.304688 185.050781 548.074219 183.753906 C 547.851562 182.453125 547.667969 180.96875 547.539062 179.3125 C 544.890625 182.183594 541.839844 184.628906 538.382812 186.648438 C 534.257812 189.027344 529.585938 190.214844 524.378906 190.214844 C 517.738281 190.214844 512.25 188.324219 507.917969 184.527344 C 503.585938 180.738281 501.421875 175.363281 501.421875 168.40625 C 501.421875 159.386719 504.894531 152.855469 511.859375 148.820312 C 515.671875 146.621094 521.285156 145.050781 528.683594 144.109375 L 535.214844 143.300781 C 538.757812 142.851562 541.296875 142.289062 542.824219 141.621094 C 545.558594 140.457031 546.925781 138.636719 546.925781 136.167969 C 546.925781 133.160156 545.882812 131.085938 543.800781 129.941406 C 541.722656 128.792969 538.65625 128.226562 534.613281 128.226562 C 530.078125 128.226562 526.875 129.347656 524.988281 131.589844 C 523.648438 133.253906 522.746094 135.496094 522.296875 138.316406 L 503.792969 138.316406 C 504.199219 131.902344 505.992188 126.628906 509.175781 122.5 Z M 523.445312 174.046875 C 525.234375 175.523438 527.4375 176.269531 530.042969 176.269531 C 534.171875 176.269531 537.976562 175.054688 541.449219 172.636719 C 544.921875 170.214844 546.730469 165.789062 546.867188 159.378906 L 546.867188 152.242188 C 545.652344 153.007812 544.429688 153.621094 543.199219 154.09375 C 541.96875 154.5625 540.269531 155.003906 538.121094 155.402344 L 533.8125 156.210938 C 529.773438 156.933594 526.882812 157.808594 525.132812 158.835938 C 522.171875 160.585938 520.691406 163.300781 520.691406 166.980469 C 520.691406 170.257812 521.609375 172.609375 523.453125 174.046875 Z M 523.445312 174.046875 " fill-opacity="1" fill-rule="nonzero"/><path fill="#231f20" d="M 641.039062 140.855469 L 621.386719 140.855469 C 621.03125 138.121094 620.105469 135.648438 618.625 133.449219 C 616.46875 130.484375 613.132812 129.007812 608.59375 129.007812 C 602.132812 129.007812 597.714844 132.21875 595.339844 138.628906 C 594.082031 142.042969 593.453125 146.570312 593.453125 152.226562 C 593.453125 157.882812 594.082031 161.941406 595.339844 165.222656 C 597.632812 171.328125 601.9375 174.375 608.265625 174.375 C 612.75 174.375 615.933594 173.164062 617.820312 170.742188 C 619.703125 168.320312 620.851562 165.179688 621.25 161.316406 L 640.835938 161.316406 C 640.386719 167.148438 638.277344 172.667969 634.507812 177.875 C 628.496094 186.265625 619.585938 190.460938 607.789062 190.460938 C 595.992188 190.460938 587.304688 186.964844 581.742188 179.964844 C 576.175781 172.96875 573.390625 163.878906 573.390625 152.703125 C 573.390625 140.089844 576.464844 130.289062 582.617188 123.292969 C 588.765625 116.292969 597.242188 112.792969 608.058594 112.792969 C 617.257812 112.792969 624.792969 114.859375 630.644531 118.984375 C 636.503906 123.113281 639.96875 130.410156 641.046875 140.863281 Z M 641.039062 140.855469 " fill-opacity="1" fill-rule="nonzero"/><path fill="#231f20" d="M 716.03125 187.90625 L 692.878906 187.90625 L 675.308594 156.542969 L 667.367188 164.820312 L 667.367188 187.90625 L 648.519531 187.90625 L 648.519531 89.023438 L 667.367188 89.023438 L 667.367188 142.46875 L 691.265625 114.875 L 715.03125 114.875 L 689.382812 142.945312 Z M 716.03125 187.90625 " fill-opacity="1" fill-rule="nonzero"/><path fill="#231f20" d="M 781.054688 123.824219 C 787.246094 131.589844 790.347656 140.769531 790.347656 151.359375 C 790.347656 161.953125 787.246094 171.34375 781.054688 178.988281 C 774.863281 186.640625 765.460938 190.460938 752.851562 190.460938 C 740.238281 190.460938 730.835938 186.640625 724.644531 178.988281 C 718.453125 171.335938 715.351562 162.128906 715.351562 151.359375 C 715.351562 140.589844 718.453125 131.597656 724.644531 123.824219 C 730.835938 116.0625 740.238281 112.183594 752.851562 112.183594 C 765.460938 112.183594 774.863281 116.0625 781.054688 123.824219 Z M 752.789062 128.402344 C 747.175781 128.402344 742.863281 130.390625 739.832031 134.359375 C 736.796875 138.332031 735.285156 143.996094 735.285156 151.351562 C 735.285156 158.707031 736.796875 164.390625 739.832031 168.378906 C 742.863281 172.371094 747.175781 174.367188 752.789062 174.367188 C 758.40625 174.367188 762.710938 172.371094 765.71875 168.378906 C 768.722656 164.390625 770.226562 158.714844 770.226562 151.351562 C 770.226562 143.988281 768.722656 138.324219 765.71875 134.359375 C 762.710938 130.382812 758.40625 128.402344 752.789062 128.402344 Z M 752.789062 128.402344 " fill-opacity="1" fill-rule="nonzero"/></svg>