<svg version="1.2" xmlns="http://www.w3.org/2000/svg" viewBox="0 0 64 64" width="64" height="64">
	<style>
		.s0 { fill: #db0078 } 
	</style>
	<path class="s0" d="m32 6l-31 14.27 8.27 3.67v6.93c-2.48 0.81-4.14 3.26-4.14 5.71 0 2.44 1.66 4.89 4.14 5.7v0.41l-3.72 8.56c-1.24 3.67-0.42 7.75 5.78 7.75 6.2 0 7.03-4.08 5.79-7.75l-3.72-8.56c2.48-1.22 4.13-3.26 4.13-6.11 0-2.86-1.65-4.9-4.13-5.71v-4.89l18.6 8.56 31-14.27zm18.19 26.5l-18.6 8.15-9.92-4.48v0.41c0 2.85-1.24 5.3-3.31 7.33l2.48 5.71v0.41c0.41 1.63 0.83 3.26 0.41 4.89 2.9 1.23 6.2 2.04 10.34 2.04 13.64 0 18.6-8.15 18.6-12.23z"/>
</svg>