<svg xmlns="http://www.w3.org/2000/svg" xmlns:xlink="http://www.w3.org/1999/xlink" width="1080" zoomAndPan="magnify" viewBox="0 0 810 809.999993" height="1080" preserveAspectRatio="xMidYMid meet" version="1.0"><path fill="#b7add5" d="M 461.21875 409.296875 L 459.667969 512.273438 L 459.898438 510.722656 C 458.894531 608.816406 379.054688 687.996094 280.726562 687.996094 C 182.402344 687.996094 102.601562 608.816406 101.554688 510.722656 C 101.554688 510.101562 101.554688 509.445312 101.554688 508.785156 L 101.554688 94.125 L 225.304688 94.125 L 225.304688 497.625 C 225.574219 528.28125 250.84375 553.316406 281.386719 553.316406 C 311.925781 553.316406 336.964844 528.550781 337.46875 498.050781 L 337.46875 409.257812 L 461.21875 409.257812 Z M 461.21875 409.296875 " fill-opacity="1" fill-rule="nonzero"/><path fill="#b7add5" d="M 337.738281 372.863281 L 339.289062 269.886719 L 339.054688 271.4375 C 340.0625 173.34375 419.902344 94.164062 518.230469 94.164062 C 616.554688 94.164062 696.355469 173.34375 697.402344 271.4375 C 697.402344 272.058594 697.402344 272.71875 697.402344 273.375 L 697.402344 525.21875 L 573.652344 525.21875 L 573.652344 284.5 C 573.378906 253.84375 548.109375 228.804688 517.570312 228.804688 C 487.03125 228.804688 461.992188 253.570312 461.488281 284.074219 L 461.488281 372.863281 Z M 337.738281 372.863281 " fill-opacity="1" fill-rule="nonzero"/><path fill="#b7add5" d="M 697.171875 625.367188 C 697.171875 627.417969 697.070312 629.464844 696.867188 631.503906 C 696.667969 633.546875 696.367188 635.574219 695.96875 637.585938 C 695.566406 639.597656 695.070312 641.585938 694.472656 643.546875 C 693.878906 645.511719 693.1875 647.4375 692.402344 649.335938 C 691.617188 651.230469 690.742188 653.082031 689.773438 654.890625 C 688.808594 656.699219 687.753906 658.457031 686.613281 660.164062 C 685.476562 661.867188 684.253906 663.515625 682.953125 665.097656 C 681.652344 666.683594 680.277344 668.203125 678.824219 669.652344 C 677.375 671.105469 675.859375 672.480469 674.273438 673.78125 C 672.6875 675.082031 671.039062 676.304688 669.335938 677.441406 C 667.628906 678.582031 665.871094 679.636719 664.0625 680.601562 C 662.253906 681.570312 660.402344 682.445312 658.507812 683.230469 C 656.613281 684.015625 654.683594 684.707031 652.71875 685.300781 C 650.757812 685.894531 648.769531 686.394531 646.757812 686.792969 C 644.746094 687.195312 642.71875 687.496094 640.679688 687.695312 C 638.636719 687.898438 636.589844 687.996094 634.539062 687.996094 C 632.488281 687.996094 630.441406 687.898438 628.398438 687.695312 C 626.359375 687.496094 624.332031 687.195312 622.320312 686.792969 C 620.308594 686.394531 618.320312 685.894531 616.359375 685.300781 C 614.394531 684.707031 612.464844 684.015625 610.570312 683.230469 C 608.675781 682.445312 606.824219 681.570312 605.015625 680.601562 C 603.207031 679.636719 601.449219 678.582031 599.742188 677.441406 C 598.039062 676.304688 596.390625 675.082031 594.804688 673.78125 C 593.21875 672.480469 591.703125 671.105469 590.253906 669.652344 C 588.800781 668.203125 587.425781 666.683594 586.125 665.097656 C 584.824219 663.511719 583.601562 661.867188 582.464844 660.164062 C 581.324219 658.457031 580.269531 656.699219 579.304688 654.890625 C 578.335938 653.082031 577.460938 651.230469 576.675781 649.335938 C 575.890625 647.4375 575.199219 645.511719 574.605469 643.546875 C 574.007812 641.585938 573.511719 639.597656 573.109375 637.585938 C 572.710938 635.574219 572.410156 633.546875 572.210938 631.503906 C 572.007812 629.464844 571.90625 627.417969 571.90625 625.367188 C 571.90625 623.316406 572.007812 621.269531 572.210938 619.226562 C 572.410156 617.1875 572.710938 615.160156 573.109375 613.148438 C 573.511719 611.136719 574.007812 609.148438 574.605469 607.183594 C 575.199219 605.222656 575.890625 603.292969 576.675781 601.398438 C 577.460938 599.503906 578.335938 597.652344 579.304688 595.84375 C 580.269531 594.035156 581.324219 592.277344 582.464844 590.570312 C 583.601562 588.863281 584.824219 587.21875 586.125 585.632812 C 587.425781 584.046875 588.800781 582.53125 590.253906 581.078125 C 591.703125 579.628906 593.21875 578.253906 594.804688 576.953125 C 596.390625 575.652344 598.039062 574.429688 599.742188 573.289062 C 601.449219 572.152344 603.207031 571.097656 605.015625 570.128906 C 606.824219 569.164062 608.675781 568.289062 610.570312 567.503906 C 612.464844 566.71875 614.394531 566.027344 616.359375 565.433594 C 618.320312 564.835938 620.308594 564.339844 622.320312 563.9375 C 624.332031 563.539062 626.359375 563.238281 628.398438 563.039062 C 630.441406 562.835938 632.488281 562.734375 634.539062 562.734375 C 636.589844 562.734375 638.636719 562.835938 640.679688 563.039062 C 642.71875 563.238281 644.746094 563.539062 646.757812 563.9375 C 648.769531 564.339844 650.757812 564.835938 652.71875 565.433594 C 654.683594 566.027344 656.613281 566.71875 658.507812 567.503906 C 660.402344 568.289062 662.253906 569.164062 664.0625 570.128906 C 665.871094 571.097656 667.628906 572.152344 669.335938 573.289062 C 671.039062 574.429688 672.6875 575.652344 674.273438 576.953125 C 675.859375 578.253906 677.375 579.628906 678.824219 581.078125 C 680.277344 582.53125 681.652344 584.046875 682.953125 585.632812 C 684.253906 587.21875 685.476562 588.863281 686.613281 590.570312 C 687.753906 592.277344 688.808594 594.035156 689.773438 595.84375 C 690.742188 597.652344 691.617188 599.503906 692.402344 601.398438 C 693.1875 603.292969 693.878906 605.222656 694.472656 607.183594 C 695.070312 609.148438 695.566406 611.136719 695.96875 613.148438 C 696.367188 615.160156 696.667969 617.1875 696.867188 619.226562 C 697.070312 621.269531 697.171875 623.316406 697.171875 625.367188 Z M 697.171875 625.367188 " fill-opacity="1" fill-rule="nonzero"/></svg>