<?xml version="1.0" encoding="UTF-8"?>
<svg id="Layer_63" data-name="Layer 63" xmlns="http://www.w3.org/2000/svg" viewBox="0 0 1080 1080">
  <defs>
    <style>
      .cls-1 {
        fill: #b7add5;
      }
    </style>
  </defs>
  <g>
    <circle cx="506.76" cy="484.6" r="11.67"/>
    <g>
      <g>
        <path d="M359.08,549.28v-73.4h25.36v73.4c0,12.69-1.97,22.58-5.91,29.65-7.35,12.96-21.36,19.44-42.05,19.44s-34.73-6.48-42.13-19.44c-3.94-7.07-5.91-16.96-5.91-29.65v-73.4h25.36v73.4c0,8.21.97,14.21,2.92,17.98,3.02,6.7,9.61,10.05,19.77,10.05s16.66-3.35,19.69-10.05c1.94-3.78,2.92-9.77,2.92-17.98Z"/>
        <path d="M441.32,524.09c-7.83,0-13.21,3.32-16.12,9.96-1.51,3.51-2.27,7.99-2.27,13.45v47.8h-23.01v-88.14h22.28v12.88c2.97-4.54,5.78-7.8,8.43-9.8,4.75-3.56,10.77-5.35,18.07-5.35,9.13,0,16.59,2.39,22.4,7.17,5.81,4.78,8.71,12.71,8.71,23.78v59.46h-23.66v-53.71c0-4.64-.62-8.21-1.86-10.69-2.27-4.54-6.59-6.8-12.96-6.8Z"/>
        <path d="M518.21,506.99v88.31h-23.41v-88.31h23.41Z"/>
        <path d="M574.36,578.85v17.26l-10.94.4c-10.91.38-18.36-1.51-22.36-5.67-2.59-2.65-3.89-6.72-3.89-12.23v-54.36h-12.31v-16.45h12.31v-24.63h22.85v24.63h24.34v16.45h-24.34v46.67c0,3.62.46,5.87,1.38,6.76.92.89,3.73,1.34,8.43,1.34.7,0,1.44-.01,2.23-.04.78-.03,1.55-.07,2.31-.12Z"/>
        <path d="M626.94,528.3c-9.29,0-15.53,3.03-18.71,9.07-1.78,3.4-2.67,8.64-2.67,15.72v42.21h-23.25v-87.54h22.04v14.63c3.56-5.89,6.67-9.91,9.32-12.07,4.32-3.62,9.94-5.43,16.85-5.43.43,0,.8.01,1.09.04.3.03.96.07,1.98.12v23.66c-1.46-.16-2.75-.27-3.89-.32-1.13-.05-2.05-.08-2.75-.08Z"/>
        <path d="M643.8,516.55c6.1-7.78,16.58-11.67,31.43-11.67,9.67,0,18.25,1.92,25.76,5.75,7.51,3.84,11.26,11.07,11.26,21.71v40.51c0,2.81.05,6.21.16,10.21.16,3.03.62,5.08,1.38,6.16.76,1.08,1.89,1.97,3.4,2.67v3.4h-25.11c-.7-1.78-1.19-3.46-1.46-5.02-.27-1.57-.49-3.35-.65-5.35-3.19,3.46-6.86,6.4-11.02,8.83-4.97,2.86-10.59,4.29-16.85,4.29-7.99,0-14.6-2.28-19.81-6.85-5.21-4.56-7.82-11.03-7.82-19.4,0-10.86,4.18-18.71,12.56-23.58,4.59-2.65,11.34-4.54,20.25-5.67l7.86-.97c4.27-.54,7.32-1.22,9.15-2.03,3.29-1.4,4.94-3.59,4.94-6.56,0-3.62-1.25-6.12-3.77-7.49-2.51-1.38-6.2-2.07-11.06-2.07-5.46,0-9.32,1.35-11.58,4.05-1.62,2-2.7,4.7-3.24,8.1h-22.28c.49-7.72,2.65-14.07,6.48-19.04ZM660.97,578.61c2.16,1.78,4.81,2.67,7.94,2.67,4.97,0,9.55-1.46,13.73-4.38,4.19-2.92,6.36-8.24,6.52-15.96v-8.59c-1.46.92-2.93,1.66-4.42,2.23-1.49.57-3.52,1.09-6.12,1.58l-5.18.97c-4.86.86-8.34,1.92-10.45,3.16-3.56,2.11-5.35,5.38-5.35,9.8,0,3.94,1.11,6.78,3.32,8.51Z"/>
        <path d="M802.51,538.67h-23.66c-.43-3.29-1.54-6.26-3.32-8.91-2.59-3.57-6.62-5.35-12.07-5.35-7.78,0-13.1,3.86-15.96,11.58-1.51,4.11-2.27,9.56-2.27,16.37s.75,11.69,2.27,15.64c2.75,7.35,7.94,11.02,15.55,11.02,5.4,0,9.24-1.46,11.5-4.37,2.27-2.92,3.65-6.7,4.13-11.34h23.58c-.54,7.02-3.08,13.67-7.62,19.93-7.24,10.1-17.96,15.15-32.16,15.15s-24.66-4.21-31.35-12.64c-6.7-8.43-10.05-19.36-10.05-32.81,0-15.18,3.7-26.98,11.1-35.4s17.61-12.64,30.62-12.64c11.07,0,20.13,2.49,27.18,7.45,7.05,4.97,11.22,13.75,12.52,26.33Z"/>
        <path d="M892.77,595.3h-27.87l-21.14-37.75-9.56,9.96v27.79h-22.68v-119.01h22.68v64.33l28.76-33.22h28.6l-30.87,33.78,32.08,54.12Z"/>
        <path d="M971.03,518.17c7.45,9.34,11.18,20.39,11.18,33.13s-3.73,24.05-11.18,33.26c-7.45,9.21-18.77,13.81-33.95,13.81s-26.49-4.6-33.94-13.81c-7.45-9.21-11.18-20.29-11.18-33.26s3.73-23.79,11.18-33.13c7.45-9.34,18.77-14.02,33.94-14.02s26.49,4.67,33.95,14.02ZM937.01,523.68c-6.75,0-11.95,2.39-15.59,7.17-3.65,4.78-5.47,11.6-5.47,20.46s1.82,15.69,5.47,20.5c3.65,4.81,8.84,7.21,15.59,7.21s11.94-2.4,15.55-7.21c3.62-4.81,5.43-11.64,5.43-20.5s-1.81-15.68-5.43-20.46c-3.62-4.78-8.8-7.17-15.55-7.17Z"/>
      </g>
      <circle cx="506.76" cy="484.6" r="11.67"/>
    </g>
  </g>
  <g>
    <g>
      <path class="cls-1" d="M179.78,539.14l-.4,26.57.06-.4c-.26,25.31-20.86,45.74-46.23,45.74s-45.96-20.43-46.23-45.74c0-.16,0-.33,0-.5v-106.99h31.93v104.11c.07,7.91,6.59,14.37,14.47,14.37s14.34-6.39,14.47-14.26v-22.91h31.93Z"/>
      <path class="cls-1" d="M147.92,529.74l.4-26.57-.06.4c.26-25.31,20.86-45.74,46.23-45.74s45.96,20.43,46.23,45.74c0,.16,0,.33,0,.5v64.98h-31.93v-62.11c-.07-7.91-6.59-14.37-14.47-14.37s-14.34,6.39-14.47,14.26v22.91h-31.93Z"/>
    </g>
    <circle class="cls-1" cx="224.5" cy="594.89" r="16.16"/>
  </g>
</svg>