<svg width="263" height="50" viewBox="0 0 263 50" fill="none" xmlns="http://www.w3.org/2000/svg">
<path d="M29 0L0 13.4615L7.73333 16.9231V23.4615C5.41333 24.2308 3.86667 26.5385 3.86667 28.8462C3.86667 31.1538 5.41333 33.4615 7.73333 34.2308V34.6154L4.25333 42.6923C3.09333 46.1538 3.86667 50 9.66667 50C15.4667 50 16.24 46.1538 15.08 42.6923L11.6 34.6154C13.92 33.4615 15.4667 31.5385 15.4667 28.8462C15.4667 26.1538 13.92 24.2308 11.6 23.4615V18.8462L29 26.9231L58 13.4615L29 0ZM46.0133 25L28.6133 32.6923L19.3333 28.4615V28.8462C19.3333 31.5385 18.1733 33.8462 16.24 35.7692L18.56 41.1538V41.5385C18.9467 43.0769 19.3333 44.6154 18.9467 46.1538C21.6533 47.3077 24.7467 48.0769 28.6133 48.0769C41.3733 48.0769 46.0133 40.3846 46.0133 36.5385V25Z" fill="#DB0078"/>
<path d="M76.1134 37.4502C73.9534 37.4502 72.1134 36.9802 70.5934 36.0402C69.0734 35.0902 67.9084 33.7702 67.0984 32.0802C66.2984 30.3902 65.8984 28.4302 65.8984 26.2002C65.8984 23.9702 66.2984 22.0102 67.0984 20.3202C67.9084 18.6302 69.0734 17.3152 70.5934 16.3752C72.1134 15.4252 73.9534 14.9502 76.1134 14.9502C78.6034 14.9502 80.6634 15.5802 82.2934 16.8402C83.9334 18.1002 85.0734 19.7952 85.7134 21.9252L82.5334 22.7802C82.1134 21.2702 81.3634 20.0852 80.2834 19.2252C79.2134 18.3652 77.8234 17.9352 76.1134 17.9352C74.5834 17.9352 73.3084 18.2802 72.2884 18.9702C71.2684 19.6602 70.4984 20.6252 69.9784 21.8652C69.4684 23.1052 69.2134 24.5502 69.2134 26.2002C69.2034 27.8502 69.4534 29.2952 69.9634 30.5352C70.4834 31.7752 71.2534 32.7402 72.2734 33.4302C73.3034 34.1202 74.5834 34.4652 76.1134 34.4652C77.8234 34.4652 79.2134 34.0352 80.2834 33.1752C81.3634 32.3052 82.1134 31.1202 82.5334 29.6202L85.7134 30.4752C85.0734 32.6052 83.9334 34.3002 82.2934 35.5602C80.6634 36.8202 78.6034 37.4502 76.1134 37.4502Z" fill="#111111"/>
<path d="M96.0475 37.4502C94.4275 37.4502 93.0225 37.0852 91.8325 36.3552C90.6425 35.6252 89.7225 34.6202 89.0725 33.3402C88.4325 32.0502 88.1125 30.5652 88.1125 28.8852C88.1125 27.1952 88.4425 25.7102 89.1025 24.4302C89.7625 23.1402 90.6875 22.1402 91.8775 21.4302C93.0675 20.7102 94.4575 20.3502 96.0475 20.3502C97.6675 20.3502 99.0725 20.7152 100.263 21.4452C101.453 22.1752 102.372 23.1802 103.022 24.4602C103.672 25.7402 103.998 27.2152 103.998 28.8852C103.998 30.5752 103.667 32.0652 103.007 33.3552C102.357 34.6352 101.438 35.6402 100.248 36.3702C99.0575 37.0902 97.6575 37.4502 96.0475 37.4502ZM96.0475 34.4952C97.5975 34.4952 98.7525 33.9752 99.5125 32.9352C100.283 31.8852 100.667 30.5352 100.667 28.8852C100.667 27.1952 100.278 25.8452 99.4975 24.8352C98.7275 23.8152 97.5775 23.3052 96.0475 23.3052C94.9975 23.3052 94.1325 23.5452 93.4525 24.0252C92.7725 24.4952 92.2675 25.1502 91.9375 25.9902C91.6075 26.8202 91.4425 27.7852 91.4425 28.8852C91.4425 30.5852 91.8325 31.9452 92.6125 32.9652C93.3925 33.9852 94.5375 34.4952 96.0475 34.4952Z" fill="#111111"/>
<path d="M107.594 37.0002V14.9502H110.729V37.0002H107.594Z" fill="#111111"/>
<path d="M115.533 37.0002V14.9502H118.668V37.0002H115.533Z" fill="#111111"/>
<path d="M130.358 37.4502C128.748 37.4502 127.333 37.1002 126.113 36.4002C124.903 35.6902 123.958 34.7052 123.278 33.4452C122.608 32.1752 122.273 30.7052 122.273 29.0352C122.273 27.2652 122.603 25.7302 123.263 24.4302C123.933 23.1302 124.863 22.1252 126.053 21.4152C127.243 20.7052 128.628 20.3502 130.208 20.3502C131.858 20.3502 133.263 20.7352 134.423 21.5052C135.583 22.2652 136.448 23.3502 137.018 24.7602C137.598 26.1702 137.828 27.8452 137.708 29.7852H134.573V28.6452C134.553 26.7652 134.193 25.3752 133.493 24.4752C132.803 23.5752 131.748 23.1252 130.328 23.1252C128.758 23.1252 127.578 23.6202 126.788 24.6102C125.998 25.6002 125.603 27.0302 125.603 28.9002C125.603 30.6802 125.998 32.0602 126.788 33.0402C127.578 34.0102 128.718 34.4952 130.208 34.4952C131.188 34.4952 132.033 34.2752 132.743 33.8352C133.463 33.3852 134.023 32.7452 134.423 31.9152L137.498 32.8902C136.868 34.3402 135.913 35.4652 134.633 36.2652C133.353 37.0552 131.928 37.4502 130.358 37.4502ZM124.583 29.7852V27.3402H136.148V29.7852H124.583Z" fill="#111111"/>
<path d="M147.748 44.6502C146.878 44.6502 146.033 44.5152 145.213 44.2452C144.403 43.9752 143.663 43.5752 142.993 43.0452C142.323 42.5252 141.768 41.8802 141.328 41.1102L144.223 39.6402C144.573 40.3302 145.073 40.8352 145.723 41.1552C146.373 41.4752 147.058 41.6352 147.778 41.6352C148.668 41.6352 149.428 41.4752 150.058 41.1552C150.688 40.8452 151.163 40.3752 151.483 39.7452C151.813 39.1152 151.973 38.3352 151.963 37.4052V32.8752H152.338V20.8002H155.113V37.4352C155.113 37.8652 155.098 38.2752 155.068 38.6652C155.038 39.0552 154.983 39.4452 154.903 39.8352C154.673 40.9252 154.233 41.8252 153.583 42.5352C152.943 43.2452 152.123 43.7752 151.123 44.1252C150.133 44.4752 149.008 44.6502 147.748 44.6502ZM147.508 37.4502C145.998 37.4502 144.693 37.0752 143.593 36.3252C142.503 35.5752 141.658 34.5552 141.058 33.2652C140.468 31.9652 140.173 30.5052 140.173 28.8852C140.173 27.2552 140.473 25.8002 141.073 24.5202C141.673 23.2302 142.523 22.2152 143.623 21.4752C144.733 20.7252 146.048 20.3502 147.568 20.3502C149.098 20.3502 150.383 20.7252 151.423 21.4752C152.473 22.2152 153.263 23.2302 153.793 24.5202C154.333 25.8102 154.603 27.2652 154.603 28.8852C154.603 30.5052 154.333 31.9602 153.793 33.2502C153.253 34.5402 152.458 35.5652 151.408 36.3252C150.358 37.0752 149.058 37.4502 147.508 37.4502ZM147.943 34.6152C148.973 34.6152 149.813 34.3702 150.463 33.8802C151.113 33.3902 151.588 32.7152 151.888 31.8552C152.188 30.9952 152.338 30.0052 152.338 28.8852C152.338 27.7652 152.183 26.7752 151.873 25.9152C151.573 25.0552 151.103 24.3852 150.463 23.9052C149.833 23.4252 149.028 23.1852 148.048 23.1852C147.008 23.1852 146.153 23.4402 145.483 23.9502C144.813 24.4602 144.313 25.1452 143.983 26.0052C143.663 26.8652 143.503 27.8252 143.503 28.8852C143.503 29.9552 143.663 30.9252 143.983 31.7952C144.313 32.6552 144.803 33.3402 145.453 33.8502C146.113 34.3602 146.943 34.6152 147.943 34.6152Z" fill="#111111"/>
<path d="M166.51 37.4502C164.9 37.4502 163.485 37.1002 162.265 36.4002C161.055 35.6902 160.11 34.7052 159.43 33.4452C158.76 32.1752 158.425 30.7052 158.425 29.0352C158.425 27.2652 158.755 25.7302 159.415 24.4302C160.085 23.1302 161.015 22.1252 162.205 21.4152C163.395 20.7052 164.78 20.3502 166.36 20.3502C168.01 20.3502 169.415 20.7352 170.575 21.5052C171.735 22.2652 172.6 23.3502 173.17 24.7602C173.75 26.1702 173.98 27.8452 173.86 29.7852H170.725V28.6452C170.705 26.7652 170.345 25.3752 169.645 24.4752C168.955 23.5752 167.9 23.1252 166.48 23.1252C164.91 23.1252 163.73 23.6202 162.94 24.6102C162.15 25.6002 161.755 27.0302 161.755 28.9002C161.755 30.6802 162.15 32.0602 162.94 33.0402C163.73 34.0102 164.87 34.4952 166.36 34.4952C167.34 34.4952 168.185 34.2752 168.895 33.8352C169.615 33.3852 170.175 32.7452 170.575 31.9152L173.65 32.8902C173.02 34.3402 172.065 35.4652 170.785 36.2652C169.505 37.0552 168.08 37.4502 166.51 37.4502ZM160.735 29.7852V27.3402H172.3V29.7852H160.735Z" fill="#111111"/>
<path d="M183.231 37.0002V15.4002H195.231V16.6602H184.491V25.5702H193.431V26.8302H184.491V37.0002H183.231Z" fill="#111111"/>
<path d="M198.238 17.3202V15.4002H199.498V17.3202H198.238ZM198.238 37.0002V20.8002H199.498V37.0002H198.238Z" fill="#111111"/>
<path d="M216.033 37.0002V28.4202C216.033 27.2602 215.913 26.2602 215.673 25.4202C215.443 24.5702 215.098 23.8702 214.638 23.3202C214.178 22.7602 213.618 22.3452 212.958 22.0752C212.308 21.8052 211.563 21.6702 210.723 21.6702C209.733 21.6702 208.888 21.8452 208.188 22.1952C207.498 22.5352 206.938 23.0052 206.508 23.6052C206.078 24.2052 205.763 24.8952 205.563 25.6752C205.363 26.4552 205.263 27.2802 205.263 28.1502L204.093 28.1802C204.093 26.3302 204.398 24.8402 205.008 23.7102C205.618 22.5702 206.423 21.7402 207.423 21.2202C208.433 20.7002 209.533 20.4402 210.723 20.4402C211.543 20.4402 212.293 20.5552 212.973 20.7852C213.663 21.0152 214.273 21.3502 214.803 21.7902C215.343 22.2202 215.798 22.7502 216.168 23.3802C216.538 24.0102 216.818 24.7302 217.008 25.5402C217.198 26.3402 217.293 27.2202 217.293 28.1802V37.0002H216.033ZM204.003 37.0002V20.8002H205.173V24.1002H205.263V37.0002H204.003Z" fill="#111111"/>
<path d="M227.35 37.4502C225.82 37.4502 224.53 37.0752 223.48 36.3252C222.44 35.5652 221.65 34.5402 221.11 33.2502C220.57 31.9502 220.3 30.4902 220.3 28.8702C220.3 27.2802 220.565 25.8402 221.095 24.5502C221.625 23.2602 222.395 22.2402 223.405 21.4902C224.425 20.7302 225.66 20.3502 227.11 20.3502C228.62 20.3502 229.89 20.7202 230.92 21.4602C231.96 22.1902 232.745 23.2002 233.275 24.4902C233.805 25.7702 234.07 27.2302 234.07 28.8702C234.07 30.4802 233.805 31.9352 233.275 33.2352C232.755 34.5252 231.995 35.5502 230.995 36.3102C229.995 37.0702 228.78 37.4502 227.35 37.4502ZM227.35 36.1902C228.62 36.1902 229.68 35.8702 230.53 35.2302C231.39 34.5902 232.035 33.7202 232.465 32.6202C232.895 31.5102 233.11 30.2602 233.11 28.8702C233.11 27.4602 232.89 26.2102 232.45 25.1202C232.02 24.0202 231.375 23.1602 230.515 22.5402C229.665 21.9202 228.61 21.6102 227.35 21.6102C226.06 21.6102 224.99 21.9302 224.14 22.5702C223.3 23.2002 222.675 24.0652 222.265 25.1652C221.855 26.2552 221.65 27.4902 221.65 28.8702C221.65 30.2602 221.865 31.5102 222.295 32.6202C222.725 33.7202 223.36 34.5902 224.2 35.2302C225.05 35.8702 226.1 36.1902 227.35 36.1902ZM233.11 37.0002V24.2502H233.02V15.4002H234.28V37.0002H233.11Z" fill="#111111"/>
<path d="M244.995 37.4502C243.465 37.4502 242.145 37.1052 241.035 36.4152C239.935 35.7252 239.085 34.7402 238.485 33.4602C237.885 32.1802 237.585 30.6602 237.585 28.9002C237.585 27.1302 237.88 25.6052 238.47 24.3252C239.07 23.0452 239.92 22.0652 241.02 21.3852C242.13 20.6952 243.455 20.3502 244.995 20.3502C246.545 20.3502 247.87 20.7002 248.97 21.4002C250.07 22.1002 250.91 23.1152 251.49 24.4452C252.08 25.7752 252.375 27.3802 252.375 29.2602H251.025V28.8402C250.965 26.5102 250.415 24.7252 249.375 23.4852C248.345 22.2352 246.885 21.6102 244.995 21.6102C243.075 21.6102 241.585 22.2502 240.525 23.5302C239.465 24.8002 238.935 26.5902 238.935 28.9002C238.935 31.2102 239.465 33.0052 240.525 34.2852C241.585 35.5552 243.075 36.1902 244.995 36.1902C246.335 36.1902 247.51 35.8752 248.52 35.2452C249.53 34.6152 250.335 33.7102 250.935 32.5302L251.985 33.1302C251.325 34.5102 250.39 35.5752 249.18 36.3252C247.97 37.0752 246.575 37.4502 244.995 37.4502ZM238.395 29.2602V28.0002H251.595V29.2602H238.395Z" fill="#111111"/>
<path d="M255.682 37.0002V20.8002H256.852V24.6702L256.462 24.1602C256.632 23.7202 256.847 23.3102 257.107 22.9302C257.367 22.5502 257.622 22.2402 257.872 22.0002C258.312 21.5702 258.832 21.2452 259.432 21.0252C260.042 20.7952 260.652 20.6652 261.262 20.6352C261.872 20.5952 262.412 20.6502 262.882 20.8002V22.0002C262.212 21.8502 261.502 21.8252 260.752 21.9252C260.002 22.0152 259.302 22.3602 258.652 22.9602C258.082 23.4902 257.677 24.1002 257.437 24.7902C257.207 25.4802 257.067 26.1952 257.017 26.9352C256.967 27.6652 256.942 28.3602 256.942 29.0202V37.0002H255.682Z" fill="#111111"/>
</svg>
