<svg width="264" height="50" viewBox="0 0 264 50" fill="none" xmlns="http://www.w3.org/2000/svg">
<path d="M29 0L0 13.4615L7.73333 16.9231V23.4615C5.41333 24.2308 3.86667 26.5385 3.86667 28.8462C3.86667 31.1538 5.41333 33.4615 7.73333 34.2308V34.6154L4.25333 42.6923C3.09333 46.1538 3.86667 50 9.66667 50C15.4667 50 16.24 46.1538 15.08 42.6923L11.6 34.6154C13.92 33.4615 15.4667 31.5385 15.4667 28.8462C15.4667 26.1538 13.92 24.2308 11.6 23.4615V18.8462L29 26.9231L58 13.4615L29 0ZM46.0133 25L28.6133 32.6923L19.3333 28.4615V28.8462C19.3333 31.5385 18.1733 33.8462 16.24 35.7692L18.56 41.1538V41.5385C18.9467 43.0769 19.3333 44.6154 18.9467 46.1538C21.6533 47.3077 24.7467 48.0769 28.6133 48.0769C41.3733 48.0769 46.0133 40.3846 46.0133 36.5385V25Z" fill="white"/>
<path d="M76.115 37.45C73.955 37.45 72.115 36.98 70.595 36.04C69.075 35.09 67.91 33.77 67.1 32.08C66.3 30.39 65.9 28.43 65.9 26.2C65.9 23.97 66.3 22.01 67.1 20.32C67.91 18.63 69.075 17.315 70.595 16.375C72.115 15.425 73.955 14.95 76.115 14.95C78.605 14.95 80.665 15.58 82.295 16.84C83.935 18.1 85.075 19.795 85.715 21.925L82.535 22.78C82.115 21.27 81.365 20.085 80.285 19.225C79.215 18.365 77.825 17.935 76.115 17.935C74.585 17.935 73.31 18.28 72.29 18.97C71.27 19.66 70.5 20.625 69.98 21.865C69.47 23.105 69.215 24.55 69.215 26.2C69.205 27.85 69.455 29.295 69.965 30.535C70.485 31.775 71.255 32.74 72.275 33.43C73.305 34.12 74.585 34.465 76.115 34.465C77.825 34.465 79.215 34.035 80.285 33.175C81.365 32.305 82.115 31.12 82.535 29.62L85.715 30.475C85.075 32.605 83.935 34.3 82.295 35.56C80.665 36.82 78.605 37.45 76.115 37.45ZM96.0491 37.45C94.4291 37.45 93.0241 37.085 91.8341 36.355C90.6441 35.625 89.7241 34.62 89.0741 33.34C88.4341 32.05 88.1141 30.565 88.1141 28.885C88.1141 27.195 88.4441 25.71 89.1041 24.43C89.7641 23.14 90.6891 22.14 91.8791 21.43C93.0691 20.71 94.4591 20.35 96.0491 20.35C97.6691 20.35 99.0741 20.715 100.264 21.445C101.454 22.175 102.374 23.18 103.024 24.46C103.674 25.74 103.999 27.215 103.999 28.885C103.999 30.575 103.669 32.065 103.009 33.355C102.359 34.635 101.439 35.64 100.249 36.37C99.0591 37.09 97.6591 37.45 96.0491 37.45ZM96.0491 34.495C97.5991 34.495 98.7541 33.975 99.5141 32.935C100.284 31.885 100.669 30.535 100.669 28.885C100.669 27.195 100.279 25.845 99.4991 24.835C98.7291 23.815 97.5791 23.305 96.0491 23.305C94.9991 23.305 94.1341 23.545 93.4541 24.025C92.7741 24.495 92.2691 25.15 91.9391 25.99C91.6091 26.82 91.4441 27.785 91.4441 28.885C91.4441 30.585 91.8341 31.945 92.6141 32.965C93.3941 33.985 94.5391 34.495 96.0491 34.495ZM107.595 37V14.95H110.73V37H107.595ZM115.535 37V14.95H118.67V37H115.535ZM130.359 37.45C128.749 37.45 127.334 37.1 126.114 36.4C124.904 35.69 123.959 34.705 123.279 33.445C122.609 32.175 122.274 30.705 122.274 29.035C122.274 27.265 122.604 25.73 123.264 24.43C123.934 23.13 124.864 22.125 126.054 21.415C127.244 20.705 128.629 20.35 130.209 20.35C131.859 20.35 133.264 20.735 134.424 21.505C135.584 22.265 136.449 23.35 137.019 24.76C137.599 26.17 137.829 27.845 137.709 29.785H134.574V28.645C134.554 26.765 134.194 25.375 133.494 24.475C132.804 23.575 131.749 23.125 130.329 23.125C128.759 23.125 127.579 23.62 126.789 24.61C125.999 25.6 125.604 27.03 125.604 28.9C125.604 30.68 125.999 32.06 126.789 33.04C127.579 34.01 128.719 34.495 130.209 34.495C131.189 34.495 132.034 34.275 132.744 33.835C133.464 33.385 134.024 32.745 134.424 31.915L137.499 32.89C136.869 34.34 135.914 35.465 134.634 36.265C133.354 37.055 131.929 37.45 130.359 37.45ZM124.584 29.785V27.34H136.149V29.785H124.584ZM147.75 44.65C146.88 44.65 146.035 44.515 145.215 44.245C144.405 43.975 143.665 43.575 142.995 43.045C142.325 42.525 141.77 41.88 141.33 41.11L144.225 39.64C144.575 40.33 145.075 40.835 145.725 41.155C146.375 41.475 147.06 41.635 147.78 41.635C148.67 41.635 149.43 41.475 150.06 41.155C150.69 40.845 151.165 40.375 151.485 39.745C151.815 39.115 151.975 38.335 151.965 37.405V32.875H152.34V20.8H155.115V37.435C155.115 37.865 155.1 38.275 155.07 38.665C155.04 39.055 154.985 39.445 154.905 39.835C154.675 40.925 154.235 41.825 153.585 42.535C152.945 43.245 152.125 43.775 151.125 44.125C150.135 44.475 149.01 44.65 147.75 44.65ZM147.51 37.45C146 37.45 144.695 37.075 143.595 36.325C142.505 35.575 141.66 34.555 141.06 33.265C140.47 31.965 140.175 30.505 140.175 28.885C140.175 27.255 140.475 25.8 141.075 24.52C141.675 23.23 142.525 22.215 143.625 21.475C144.735 20.725 146.05 20.35 147.57 20.35C149.1 20.35 150.385 20.725 151.425 21.475C152.475 22.215 153.265 23.23 153.795 24.52C154.335 25.81 154.605 27.265 154.605 28.885C154.605 30.505 154.335 31.96 153.795 33.25C153.255 34.54 152.46 35.565 151.41 36.325C150.36 37.075 149.06 37.45 147.51 37.45ZM147.945 34.615C148.975 34.615 149.815 34.37 150.465 33.88C151.115 33.39 151.59 32.715 151.89 31.855C152.19 30.995 152.34 30.005 152.34 28.885C152.34 27.765 152.185 26.775 151.875 25.915C151.575 25.055 151.105 24.385 150.465 23.905C149.835 23.425 149.03 23.185 148.05 23.185C147.01 23.185 146.155 23.44 145.485 23.95C144.815 24.46 144.315 25.145 143.985 26.005C143.665 26.865 143.505 27.825 143.505 28.885C143.505 29.955 143.665 30.925 143.985 31.795C144.315 32.655 144.805 33.34 145.455 33.85C146.115 34.36 146.945 34.615 147.945 34.615ZM166.512 37.45C164.902 37.45 163.487 37.1 162.267 36.4C161.057 35.69 160.112 34.705 159.432 33.445C158.762 32.175 158.427 30.705 158.427 29.035C158.427 27.265 158.757 25.73 159.417 24.43C160.087 23.13 161.017 22.125 162.207 21.415C163.397 20.705 164.782 20.35 166.362 20.35C168.012 20.35 169.417 20.735 170.577 21.505C171.737 22.265 172.602 23.35 173.172 24.76C173.752 26.17 173.982 27.845 173.862 29.785H170.727V28.645C170.707 26.765 170.347 25.375 169.647 24.475C168.957 23.575 167.902 23.125 166.482 23.125C164.912 23.125 163.732 23.62 162.942 24.61C162.152 25.6 161.757 27.03 161.757 28.9C161.757 30.68 162.152 32.06 162.942 33.04C163.732 34.01 164.872 34.495 166.362 34.495C167.342 34.495 168.187 34.275 168.897 33.835C169.617 33.385 170.177 32.745 170.577 31.915L173.652 32.89C173.022 34.34 172.067 35.465 170.787 36.265C169.507 37.055 168.082 37.45 166.512 37.45ZM160.737 29.785V27.34H172.302V29.785H160.737ZM183.233 37V15.4H195.233V16.66H184.493V25.57H193.433V26.83H184.493V37H183.233ZM198.24 17.32V15.4H199.5V17.32H198.24ZM198.24 37V20.8H199.5V37H198.24ZM216.034 37V28.42C216.034 27.26 215.914 26.26 215.674 25.42C215.444 24.57 215.099 23.87 214.639 23.32C214.179 22.76 213.619 22.345 212.959 22.075C212.309 21.805 211.564 21.67 210.724 21.67C209.734 21.67 208.889 21.845 208.189 22.195C207.499 22.535 206.939 23.005 206.509 23.605C206.079 24.205 205.764 24.895 205.564 25.675C205.364 26.455 205.264 27.28 205.264 28.15L204.094 28.18C204.094 26.33 204.399 24.84 205.009 23.71C205.619 22.57 206.424 21.74 207.424 21.22C208.434 20.7 209.534 20.44 210.724 20.44C211.544 20.44 212.294 20.555 212.974 20.785C213.664 21.015 214.274 21.35 214.804 21.79C215.344 22.22 215.799 22.75 216.169 23.38C216.539 24.01 216.819 24.73 217.009 25.54C217.199 26.34 217.294 27.22 217.294 28.18V37H216.034ZM204.004 37V20.8H205.174V24.1H205.264V37H204.004ZM227.352 37.45C225.822 37.45 224.532 37.075 223.482 36.325C222.442 35.565 221.652 34.54 221.112 33.25C220.572 31.95 220.302 30.49 220.302 28.87C220.302 27.28 220.567 25.84 221.097 24.55C221.627 23.26 222.397 22.24 223.407 21.49C224.427 20.73 225.662 20.35 227.112 20.35C228.622 20.35 229.892 20.72 230.922 21.46C231.962 22.19 232.747 23.2 233.277 24.49C233.807 25.77 234.072 27.23 234.072 28.87C234.072 30.48 233.807 31.935 233.277 33.235C232.757 34.525 231.997 35.55 230.997 36.31C229.997 37.07 228.782 37.45 227.352 37.45ZM227.352 36.19C228.622 36.19 229.682 35.87 230.532 35.23C231.392 34.59 232.037 33.72 232.467 32.62C232.897 31.51 233.112 30.26 233.112 28.87C233.112 27.46 232.892 26.21 232.452 25.12C232.022 24.02 231.377 23.16 230.517 22.54C229.667 21.92 228.612 21.61 227.352 21.61C226.062 21.61 224.992 21.93 224.142 22.57C223.302 23.2 222.677 24.065 222.267 25.165C221.857 26.255 221.652 27.49 221.652 28.87C221.652 30.26 221.867 31.51 222.297 32.62C222.727 33.72 223.362 34.59 224.202 35.23C225.052 35.87 226.102 36.19 227.352 36.19ZM233.112 37V24.25H233.022V15.4H234.282V37H233.112ZM244.997 37.45C243.467 37.45 242.147 37.105 241.037 36.415C239.937 35.725 239.087 34.74 238.487 33.46C237.887 32.18 237.587 30.66 237.587 28.9C237.587 27.13 237.882 25.605 238.472 24.325C239.072 23.045 239.922 22.065 241.022 21.385C242.132 20.695 243.457 20.35 244.997 20.35C246.547 20.35 247.872 20.7 248.972 21.4C250.072 22.1 250.912 23.115 251.492 24.445C252.082 25.775 252.377 27.38 252.377 29.26H251.027V28.84C250.967 26.51 250.417 24.725 249.377 23.485C248.347 22.235 246.887 21.61 244.997 21.61C243.077 21.61 241.587 22.25 240.527 23.53C239.467 24.8 238.937 26.59 238.937 28.9C238.937 31.21 239.467 33.005 240.527 34.285C241.587 35.555 243.077 36.19 244.997 36.19C246.337 36.19 247.512 35.875 248.522 35.245C249.532 34.615 250.337 33.71 250.937 32.53L251.987 33.13C251.327 34.51 250.392 35.575 249.182 36.325C247.972 37.075 246.577 37.45 244.997 37.45ZM238.397 29.26V28H251.597V29.26H238.397ZM255.684 37V20.8H256.854V24.67L256.464 24.16C256.634 23.72 256.849 23.31 257.109 22.93C257.369 22.55 257.624 22.24 257.874 22C258.314 21.57 258.834 21.245 259.434 21.025C260.044 20.795 260.654 20.665 261.264 20.635C261.874 20.595 262.414 20.65 262.884 20.8V22C262.214 21.85 261.504 21.825 260.754 21.925C260.004 22.015 259.304 22.36 258.654 22.96C258.084 23.49 257.679 24.1 257.439 24.79C257.209 25.48 257.069 26.195 257.019 26.935C256.969 27.665 256.944 28.36 256.944 29.02V37H255.684Z" fill="white"/>
</svg>
