<svg xmlns="http://www.w3.org/2000/svg" xmlns:xlink="http://www.w3.org/1999/xlink" width="1080" zoomAndPan="magnify" viewBox="0 0 810 269.999989" height="360" preserveAspectRatio="xMidYMid meet" version="1.0"><path fill="#000000" d="M 393.199219 88.394531 C 393.199219 89 393.140625 89.59375 393.023438 90.1875 C 392.90625 90.777344 392.734375 91.351562 392.503906 91.910156 C 392.269531 92.464844 391.988281 92.996094 391.652344 93.496094 C 391.320312 93.996094 390.9375 94.460938 390.511719 94.886719 C 390.085938 95.3125 389.621094 95.695312 389.121094 96.03125 C 388.617188 96.363281 388.089844 96.648438 387.53125 96.878906 C 386.976562 97.109375 386.402344 97.285156 385.808594 97.402344 C 385.21875 97.519531 384.621094 97.578125 384.019531 97.578125 C 383.417969 97.578125 382.820312 97.519531 382.226562 97.402344 C 381.636719 97.285156 381.0625 97.109375 380.503906 96.878906 C 379.949219 96.648438 379.417969 96.363281 378.917969 96.03125 C 378.417969 95.695312 377.953125 95.3125 377.527344 94.886719 C 377.101562 94.460938 376.71875 93.996094 376.382812 93.496094 C 376.050781 92.996094 375.765625 92.464844 375.535156 91.910156 C 375.304688 91.351562 375.132812 90.777344 375.011719 90.1875 C 374.894531 89.59375 374.835938 89 374.835938 88.394531 C 374.835938 87.792969 374.894531 87.195312 375.011719 86.605469 C 375.132812 86.011719 375.304688 85.4375 375.535156 84.882812 C 375.765625 84.324219 376.050781 83.796875 376.382812 83.292969 C 376.71875 82.792969 377.101562 82.328125 377.527344 81.902344 C 377.953125 81.476562 378.417969 81.097656 378.917969 80.761719 C 379.417969 80.425781 379.949219 80.144531 380.503906 79.914062 C 381.0625 79.683594 381.636719 79.507812 382.226562 79.390625 C 382.820312 79.273438 383.417969 79.214844 384.019531 79.214844 C 384.621094 79.214844 385.21875 79.273438 385.808594 79.390625 C 386.402344 79.507812 386.976562 79.683594 387.53125 79.914062 C 388.089844 80.144531 388.617188 80.425781 389.121094 80.761719 C 389.621094 81.097656 390.085938 81.476562 390.511719 81.902344 C 390.9375 82.328125 391.320312 82.792969 391.652344 83.292969 C 391.988281 83.796875 392.269531 84.324219 392.503906 84.882812 C 392.734375 85.4375 392.90625 86.011719 393.023438 86.605469 C 393.140625 87.195312 393.199219 87.792969 393.199219 88.394531 Z M 393.199219 88.394531 " fill-opacity="1" fill-rule="nonzero"/><path fill="#000000" d="M 267.824219 139.285156 L 267.824219 81.535156 L 287.777344 81.535156 L 287.777344 139.285156 C 287.777344 149.269531 286.226562 157.050781 283.128906 162.613281 C 277.34375 172.8125 266.320312 177.910156 250.042969 177.910156 C 233.761719 177.910156 222.714844 172.8125 216.894531 162.613281 C 213.792969 157.050781 212.242188 149.269531 212.242188 139.285156 L 212.242188 81.535156 L 232.195312 81.535156 L 232.195312 139.285156 C 232.195312 145.746094 232.960938 150.464844 234.496094 153.433594 C 236.871094 158.703125 242.054688 161.339844 250.050781 161.339844 C 258.042969 161.339844 263.15625 158.703125 265.542969 153.433594 C 267.066406 150.457031 267.839844 145.746094 267.839844 139.285156 Z M 267.824219 139.285156 " fill-opacity="1" fill-rule="nonzero"/><path fill="#000000" d="M 332.53125 119.464844 C 326.371094 119.464844 322.136719 122.078125 319.847656 127.304688 C 318.660156 130.066406 318.0625 133.589844 318.0625 137.886719 L 318.0625 175.496094 L 299.957031 175.496094 L 299.957031 106.144531 L 317.488281 106.144531 L 317.488281 116.28125 C 319.824219 112.707031 322.035156 110.144531 324.121094 108.570312 C 327.855469 105.769531 332.59375 104.359375 338.335938 104.359375 C 345.519531 104.359375 351.390625 106.242188 355.960938 110 C 360.53125 113.761719 362.816406 120 362.816406 128.710938 L 362.816406 175.496094 L 344.199219 175.496094 L 344.199219 133.234375 C 344.199219 129.585938 343.710938 126.777344 342.734375 124.824219 C 340.949219 121.253906 337.550781 119.472656 332.539062 119.472656 Z M 332.53125 119.464844 " fill-opacity="1" fill-rule="nonzero"/><path fill="#000000" d="M 374.609375 106.011719 L 393.027344 106.011719 L 393.027344 175.496094 L 374.609375 175.496094 Z M 374.609375 106.011719 " fill-opacity="1" fill-rule="nonzero"/><path fill="#000000" d="M 437.207031 162.550781 L 437.207031 176.132812 L 428.597656 176.445312 C 420.015625 176.746094 414.152344 175.257812 411.007812 171.984375 C 408.96875 169.902344 407.945312 166.699219 407.945312 162.363281 L 407.945312 119.59375 L 398.261719 119.59375 L 398.261719 106.648438 L 407.945312 106.648438 L 407.945312 87.269531 L 425.925781 87.269531 L 425.925781 106.648438 L 445.074219 106.648438 L 445.074219 119.59375 L 425.925781 119.59375 L 425.925781 156.3125 C 425.925781 159.160156 426.285156 160.929688 427.011719 161.632812 C 427.734375 162.332031 429.945312 162.6875 433.644531 162.6875 C 434.195312 162.6875 434.777344 162.679688 435.398438 162.652344 C 436.011719 162.628906 436.617188 162.597656 437.214844 162.558594 Z M 437.207031 162.550781 " fill-opacity="1" fill-rule="nonzero"/><path fill="#000000" d="M 478.578125 122.777344 C 471.269531 122.777344 466.359375 125.164062 463.855469 129.914062 C 462.457031 132.589844 461.753906 136.714844 461.753906 142.285156 L 461.753906 175.496094 L 443.460938 175.496094 L 443.460938 106.617188 L 460.804688 106.617188 L 460.804688 118.128906 C 463.605469 113.496094 466.050781 110.332031 468.136719 108.632812 C 471.535156 105.785156 475.957031 104.359375 481.394531 104.359375 C 481.734375 104.359375 482.023438 104.367188 482.25 104.390625 C 482.488281 104.414062 483.007812 104.445312 483.808594 104.484375 L 483.808594 123.101562 C 482.660156 122.976562 481.644531 122.890625 480.75 122.851562 C 479.859375 122.808594 479.136719 122.785156 478.585938 122.785156 Z M 478.578125 122.777344 " fill-opacity="1" fill-rule="nonzero"/><path fill="#000000" d="M 491.84375 113.535156 C 496.640625 107.414062 504.886719 104.351562 516.570312 104.351562 C 524.179688 104.351562 530.929688 105.863281 536.839844 108.875 C 542.75 111.898438 545.699219 117.585938 545.699219 125.957031 L 545.699219 157.832031 C 545.699219 160.042969 545.738281 162.71875 545.824219 165.863281 C 545.953125 168.25 546.3125 169.863281 546.910156 170.710938 C 547.507812 171.5625 548.398438 172.261719 549.585938 172.8125 L 549.585938 175.488281 L 529.828125 175.488281 C 529.277344 174.085938 528.894531 172.765625 528.679688 171.539062 C 528.46875 170.300781 528.296875 168.902344 528.167969 167.328125 C 525.660156 170.050781 522.773438 172.363281 519.5 174.273438 C 515.589844 176.527344 511.167969 177.652344 506.242188 177.652344 C 499.953125 177.652344 494.753906 175.855469 490.65625 172.261719 C 486.554688 168.671875 484.503906 163.582031 484.503906 156.996094 C 484.503906 148.453125 487.789062 142.277344 494.382812 138.445312 C 497.996094 136.359375 503.308594 134.871094 510.316406 133.984375 L 516.5 133.21875 C 519.859375 132.796875 522.261719 132.261719 523.699219 131.621094 C 526.289062 130.519531 527.585938 128.796875 527.585938 126.460938 C 527.585938 123.613281 526.605469 121.644531 524.621094 120.566406 C 522.644531 119.480469 519.742188 118.9375 515.917969 118.9375 C 511.625 118.9375 508.585938 120 506.808594 122.125 C 505.535156 123.699219 504.683594 125.824219 504.257812 128.5 L 486.730469 128.5 C 487.113281 122.425781 488.8125 117.429688 491.828125 113.519531 Z M 505.351562 162.363281 C 507.050781 163.761719 509.136719 164.464844 511.597656 164.464844 C 515.511719 164.464844 519.113281 163.316406 522.402344 161.019531 C 525.699219 158.71875 527.40625 154.535156 527.53125 148.460938 L 527.53125 141.703125 C 526.382812 142.425781 525.226562 143.007812 524.054688 143.457031 C 522.882812 143.90625 521.285156 144.3125 519.238281 144.699219 L 515.164062 145.460938 C 511.339844 146.140625 508.601562 146.972656 506.941406 147.949219 C 504.140625 149.609375 502.730469 152.183594 502.730469 155.660156 C 502.730469 158.757812 503.605469 160.992188 505.34375 162.355469 Z M 505.351562 162.363281 " fill-opacity="1" fill-rule="nonzero"/><path fill="#000000" d="M 616.71875 130.9375 L 598.101562 130.9375 C 597.761719 128.347656 596.890625 126.011719 595.488281 123.925781 C 593.449219 121.117188 590.28125 119.71875 585.992188 119.71875 C 579.871094 119.71875 575.683594 122.753906 573.433594 128.828125 C 572.246094 132.0625 571.648438 136.351562 571.648438 141.710938 C 571.648438 147.066406 572.238281 150.90625 573.433594 154.015625 C 575.597656 159.796875 579.683594 162.6875 585.667969 162.6875 C 589.917969 162.6875 592.941406 161.535156 594.71875 159.246094 C 596.503906 156.949219 597.589844 153.976562 597.96875 150.324219 L 616.519531 150.324219 C 616.09375 155.847656 614.097656 161.082031 610.523438 166.007812 C 604.828125 173.953125 596.394531 177.925781 585.222656 177.925781 C 574.046875 177.925781 565.820312 174.613281 560.554688 167.980469 C 555.28125 161.347656 552.648438 152.75 552.648438 142.164062 C 552.648438 130.222656 555.558594 120.9375 561.378906 114.3125 C 567.203125 107.6875 575.238281 104.367188 585.472656 104.367188 C 594.183594 104.367188 601.3125 106.328125 606.859375 110.230469 C 612.40625 114.140625 615.6875 121.046875 616.710938 130.945312 Z M 616.71875 130.9375 " fill-opacity="1" fill-rule="nonzero"/><path fill="#000000" d="M 687.734375 175.496094 L 665.804688 175.496094 L 649.171875 145.792969 L 641.652344 153.628906 L 641.652344 175.496094 L 623.804688 175.496094 L 623.804688 81.855469 L 641.652344 81.855469 L 641.652344 132.472656 L 664.277344 106.335938 L 686.78125 106.335938 L 662.492188 132.914062 Z M 687.734375 175.496094 " fill-opacity="1" fill-rule="nonzero"/><path fill="#000000" d="M 749.308594 114.808594 C 755.171875 122.15625 758.105469 130.851562 758.105469 140.875 C 758.105469 150.898438 755.171875 159.796875 749.308594 167.042969 C 743.449219 174.292969 734.539062 177.910156 722.597656 177.910156 C 710.652344 177.910156 701.753906 174.292969 695.894531 167.042969 C 690.03125 159.796875 687.097656 151.082031 687.097656 140.875 C 687.097656 130.671875 690.03125 122.15625 695.894531 114.808594 C 701.753906 107.460938 710.660156 103.777344 722.597656 103.777344 C 734.53125 103.777344 743.441406 107.453125 749.308594 114.808594 Z M 722.542969 119.144531 C 717.230469 119.144531 713.140625 121.023438 710.277344 124.785156 C 707.402344 128.546875 705.972656 133.914062 705.972656 140.882812 C 705.972656 147.855469 707.402344 153.226562 710.277344 157.011719 C 713.148438 160.796875 717.230469 162.6875 722.542969 162.6875 C 727.851562 162.6875 731.9375 160.796875 734.777344 157.011719 C 737.625 153.226562 739.050781 147.855469 739.050781 140.882812 C 739.050781 133.914062 737.625 128.546875 734.777344 124.785156 C 731.929688 121.023438 727.851562 119.144531 722.542969 119.144531 Z M 722.542969 119.144531 " fill-opacity="1" fill-rule="nonzero"/><path fill="#000000" d="M 393.199219 88.394531 C 393.199219 89 393.140625 89.59375 393.023438 90.1875 C 392.90625 90.777344 392.734375 91.351562 392.503906 91.910156 C 392.269531 92.464844 391.988281 92.996094 391.652344 93.496094 C 391.320312 93.996094 390.9375 94.460938 390.511719 94.886719 C 390.085938 95.3125 389.621094 95.695312 389.121094 96.03125 C 388.617188 96.363281 388.089844 96.648438 387.53125 96.878906 C 386.976562 97.109375 386.402344 97.285156 385.808594 97.402344 C 385.21875 97.519531 384.621094 97.578125 384.019531 97.578125 C 383.417969 97.578125 382.820312 97.519531 382.226562 97.402344 C 381.636719 97.285156 381.0625 97.109375 380.503906 96.878906 C 379.949219 96.648438 379.417969 96.363281 378.917969 96.03125 C 378.417969 95.695312 377.953125 95.3125 377.527344 94.886719 C 377.101562 94.460938 376.71875 93.996094 376.382812 93.496094 C 376.050781 92.996094 375.765625 92.464844 375.535156 91.910156 C 375.304688 91.351562 375.132812 90.777344 375.011719 90.1875 C 374.894531 89.59375 374.835938 89 374.835938 88.394531 C 374.835938 87.792969 374.894531 87.195312 375.011719 86.605469 C 375.132812 86.011719 375.304688 85.4375 375.535156 84.882812 C 375.765625 84.324219 376.050781 83.796875 376.382812 83.292969 C 376.71875 82.792969 377.101562 82.328125 377.527344 81.902344 C 377.953125 81.476562 378.417969 81.097656 378.917969 80.761719 C 379.417969 80.425781 379.949219 80.144531 380.503906 79.914062 C 381.0625 79.683594 381.636719 79.507812 382.226562 79.390625 C 382.820312 79.273438 383.417969 79.214844 384.019531 79.214844 C 384.621094 79.214844 385.21875 79.273438 385.808594 79.390625 C 386.402344 79.507812 386.976562 79.683594 387.53125 79.914062 C 388.089844 80.144531 388.617188 80.425781 389.121094 80.761719 C 389.621094 81.097656 390.085938 81.476562 390.511719 81.902344 C 390.9375 82.328125 391.320312 82.792969 391.652344 83.292969 C 391.988281 83.796875 392.269531 84.324219 392.503906 84.882812 C 392.734375 85.4375 392.90625 86.011719 393.023438 86.605469 C 393.140625 87.195312 393.199219 87.792969 393.199219 88.394531 Z M 393.199219 88.394531 " fill-opacity="1" fill-rule="nonzero"/><path fill="#b7add5" d="M 126.75 131.308594 L 126.433594 152.214844 L 126.480469 151.898438 C 126.277344 171.8125 110.070312 187.886719 90.109375 187.886719 C 70.148438 187.886719 53.945312 171.8125 53.734375 151.898438 C 53.734375 151.773438 53.734375 151.640625 53.734375 151.503906 L 53.734375 67.324219 L 78.855469 67.324219 L 78.855469 149.238281 C 78.910156 155.460938 84.042969 160.546875 90.242188 160.546875 C 96.441406 160.546875 101.523438 155.519531 101.625 149.324219 L 101.625 131.300781 L 126.75 131.300781 Z M 126.75 131.308594 " fill-opacity="1" fill-rule="nonzero"/><path fill="#b7add5" d="M 101.683594 123.910156 L 101.996094 103.007812 L 101.949219 103.320312 C 102.152344 83.40625 118.363281 67.332031 138.324219 67.332031 C 158.285156 67.332031 174.484375 83.40625 174.699219 103.320312 C 174.699219 103.445312 174.699219 103.582031 174.699219 103.714844 L 174.699219 154.839844 L 149.574219 154.839844 L 149.574219 105.972656 C 149.519531 99.75 144.390625 94.667969 138.191406 94.667969 C 131.988281 94.667969 126.90625 99.695312 126.804688 105.886719 L 126.804688 123.910156 Z M 101.683594 123.910156 " fill-opacity="1" fill-rule="nonzero"/><path fill="#b7add5" d="M 174.648438 175.171875 C 174.648438 176.007812 174.570312 176.832031 174.40625 177.652344 C 174.242188 178.472656 174 179.265625 173.683594 180.039062 C 173.363281 180.808594 172.972656 181.542969 172.507812 182.234375 C 172.042969 182.929688 171.515625 183.574219 170.925781 184.164062 C 170.335938 184.753906 169.695312 185.28125 169 185.746094 C 168.304688 186.207031 167.574219 186.601562 166.800781 186.917969 C 166.03125 187.238281 165.234375 187.480469 164.414062 187.644531 C 163.597656 187.804688 162.769531 187.886719 161.933594 187.886719 C 161.101562 187.886719 160.273438 187.804688 159.453125 187.644531 C 158.636719 187.480469 157.839844 187.238281 157.070312 186.917969 C 156.296875 186.601562 155.566406 186.207031 154.871094 185.746094 C 154.175781 185.28125 153.535156 184.753906 152.945312 184.164062 C 152.355469 183.574219 151.828125 182.929688 151.363281 182.234375 C 150.898438 181.542969 150.507812 180.808594 150.1875 180.039062 C 149.867188 179.265625 149.628906 178.472656 149.464844 177.652344 C 149.300781 176.832031 149.21875 176.007812 149.21875 175.171875 C 149.21875 174.335938 149.300781 173.511719 149.464844 172.691406 C 149.628906 171.871094 149.867188 171.078125 150.1875 170.304688 C 150.507812 169.535156 150.898438 168.800781 151.363281 168.109375 C 151.828125 167.414062 152.355469 166.773438 152.945312 166.179688 C 153.535156 165.589844 154.175781 165.0625 154.871094 164.601562 C 155.566406 164.136719 156.296875 163.746094 157.070312 163.425781 C 157.839844 163.105469 158.636719 162.863281 159.453125 162.703125 C 160.273438 162.539062 161.101562 162.457031 161.933594 162.457031 C 162.769531 162.457031 163.597656 162.539062 164.414062 162.703125 C 165.234375 162.863281 166.03125 163.105469 166.800781 163.425781 C 167.574219 163.746094 168.304688 164.136719 169 164.601562 C 169.695312 165.0625 170.335938 165.589844 170.925781 166.179688 C 171.515625 166.773438 172.042969 167.414062 172.507812 168.109375 C 172.972656 168.800781 173.363281 169.535156 173.683594 170.304688 C 174 171.078125 174.242188 171.871094 174.40625 172.691406 C 174.570312 173.511719 174.648438 174.335938 174.648438 175.171875 Z M 174.648438 175.171875 " fill-opacity="1" fill-rule="nonzero"/></svg>